<?xml version="1.0" encoding="utf-8"?>
<!-- Generator: Adobe Illustrator 15.0.0, SVG Export Plug-In . SVG Version: 6.00 Build 0)  -->
<!DOCTYPE svg PUBLIC "-//W3C//DTD SVG 1.1//EN" "http://www.w3.org/Graphics/SVG/1.1/DTD/svg11.dtd">
<svg version="1.1" id="cup" xmlns="http://www.w3.org/2000/svg" xmlns:xlink="http://www.w3.org/1999/xlink" x="0px" y="0px"
	 width="181px" height="86.834px" viewBox="0 0 181 86.834" enable-background="new 0 0 181 86.834" xml:space="preserve">
<g>
	<path fill="#6C7988" d="M77.327,83.635H14.841c-5.566,0-10.093-4.525-10.093-10.092V11.056c0-5.565,4.527-10.094,10.093-10.094
		h62.486c5.566,0,10.094,4.528,10.094,10.094v62.488C87.42,79.109,82.893,83.635,77.327,83.635z M14.841,2.413
		c-4.766,0-8.643,3.877-8.643,8.643v62.488c0,4.766,3.877,8.644,8.643,8.644h62.486c4.768,0,8.645-3.878,8.645-8.644V11.056
		c0-4.766-3.877-8.643-8.645-8.643H14.841z"/>
</g>
<path fill="#6C7988" d="M46.044,10.948c-7.092,0-13.643,2.36-18.91,6.337L16.598,6.749C15.722,5.873,14.57,5.39,13.356,5.39
	c-1.183,0-2.299,0.464-3.141,1.307L10.12,6.791c-1.774,1.774-1.774,4.662,0,6.436l10.577,10.579
	c-3.833,5.211-6.101,11.641-6.101,18.593c0,17.34,14.107,31.447,31.448,31.447c17.342,0,31.449-14.107,31.449-31.447
	C77.493,25.056,63.386,10.948,46.044,10.948z M11.146,12.201c-1.208-1.21-1.208-3.177-0.001-4.385l0.095-0.094
	c0.568-0.568,1.32-0.881,2.116-0.881c0.827,0,1.614,0.332,2.217,0.935L25.99,18.192c-1.609,1.335-3.082,2.829-4.398,4.455
	L11.146,12.201z M46.044,72.395c-16.541,0-29.998-13.455-29.998-29.996c0-16.542,13.457-30,29.998-30s29.998,13.457,29.998,30
	C76.042,58.939,62.585,72.395,46.044,72.395z"/>
<path fill="#6C7988" d="M46.012,15.879c-14.627,0-26.486,11.858-26.486,26.486c0,14.629,11.858,26.486,26.486,26.486
	c14.629,0,26.487-11.857,26.487-26.486C72.5,27.737,60.641,15.879,46.012,15.879z M23.846,37.801c-0.435,0-0.788-0.353-0.788-0.788
	s0.353-0.787,0.788-0.787s0.787,0.353,0.787,0.787C24.634,37.448,24.282,37.801,23.846,37.801z M25.868,34.956
	c-0.55,0-0.997-0.446-0.997-0.997c0-0.551,0.446-0.997,0.997-0.997c0.551,0,0.998,0.446,0.998,0.997
	C26.866,34.51,26.42,34.956,25.868,34.956z M45.087,19.546c0.551,0,0.998,0.446,0.998,0.997c0,0.551-0.445,0.997-0.998,0.997
	c-0.55,0-0.996-0.446-0.996-0.997C44.091,19.992,44.536,19.546,45.087,19.546z M40.509,20.271c0.926,0,1.677,0.751,1.677,1.678
	c0,0.926-0.75,1.678-1.677,1.678c-0.927,0-1.677-0.752-1.677-1.678C38.832,21.022,39.583,20.271,40.509,20.271z M34.934,22.537
	c1.652,0,2.992,1.339,2.992,2.991s-1.34,2.992-2.992,2.992c-1.652,0-2.991-1.34-2.991-2.992S33.282,22.537,34.934,22.537z
	 M29.631,27.252c0.625,0,1.133,0.507,1.133,1.132c0,0.626-0.507,1.133-1.133,1.133s-1.133-0.507-1.133-1.133
	C28.498,27.759,29.005,27.252,29.631,27.252z M28.498,32.78c0-0.901,0.73-1.631,1.632-1.631c0.901,0,1.631,0.729,1.631,1.631
	s-0.73,1.632-1.631,1.632C29.228,34.412,28.498,33.683,28.498,32.78z M56.481,60.779c-9.288,5.342-20.671,2.695-25.445-5.608
	s-0.768-20.828,8.521-26.167c9.29-5.34,22.418-2.502,27.193,5.802C71.524,43.109,65.77,55.441,56.481,60.779z"/>
<path opacity="0.2" fill="#6C7988" enable-background="new    " d="M46.044,73.846c-17.34,0-31.448-14.107-31.448-31.447
	c0-4.958,1.155-9.65,3.207-13.826c-3.408,5.579-5.021,10.542-5.021,18.02c-0.001,16.563,15.042,28.813,29.34,28.813
	c8,0,13.196-1.56,19.102-5.472C56.72,72.426,51.546,73.846,46.044,73.846z"/>
<path opacity="0.2" fill="#6C7988" enable-background="new    " d="M77.327,83.635H14.841c-5.566,0-10.093-4.525-10.093-10.092
	V11.056c0-2.493,0.911-4.776,2.414-6.54c-3.361,1.638-4.678,5.088-4.678,9.078v62.487c0,5.573,4.519,10.094,10.094,10.094h61.487
	c3.085,0,5.845-1.385,7.695-3.565C80.421,83.266,78.917,83.635,77.327,83.635z"/>
<path opacity="0.6" fill="#6C7988" enable-background="new    " d="M28.769,54.264c0,0-4.169-10.604,1.723-17.766
	s12.419-16.759,31.365-7.926c1.541,0.764,14.303,10.698,4.432,24.812C62.583,57.891,43.999,77.654,28.769,54.264z"/>
<g opacity="0.2">
	<path fill="#6C7988" d="M120.885,22.206l-3.559,1.892l-4.592-1.142l-1.844-2.672l-10.488,0.988l1.672-2.685l-3.324,4.9
		l11.125-1.844c0.768,1.76,1.795,2.602,3.439,3.469c1.625,0.813,4.219,1,6.25-0.219l7.994,7.243l-1.627-3.896l-5.475-4.845
		L120.885,22.206z"/>
</g>
<path fill="#6C7988" d="M134.902,23.995l-5.193-4.526l4.691-5.494l-11.652,2.392c-0.766-2.75-3.287-4.777-6.279-4.777
	c-1.438,0-2.766,0.474-3.846,1.266l-7.953-8.322l0.648,7.167l-6.855,0.689l5.23,4.411l-5.65,5.34l12.463-1.393
	c1.016,2.287,3.305,3.888,5.963,3.888c1.27,0,2.451-0.37,3.455-1c1.742,1.603,8.188,7.229,8.482,7.486l1.193,1.043l-1.516-7.599
	L134.902,23.995z M121.789,16.966l0.018,0.089c0.031,0.157,0.059,0.317,0.074,0.479c0.002,0.019,0.004,0.037,0.006,0.056
	c0.014,0.145,0.02,0.292,0.021,0.439c0,0.057,0,0.117,0,0.178c-0.002,0.138-0.008,0.276-0.021,0.411
	c-0.002,0.026-0.006,0.052-0.008,0.078c-0.26,2.432-2.129,4.384-4.518,4.781l2.938-9.226
	C121.035,14.981,121.561,15.918,121.789,16.966z M117.016,12.698c0.869,0.087,1.68,0.384,2.379,0.833l-3.188,10.013
	c-0.877-0.042-1.701-0.289-2.422-0.7L117.016,12.698z M110.146,19.702l-9.016,1.008l4.184-3.954l-4.203-3.545l5.379-0.541
	l-0.467-5.155l5.779,6.048c-1.146,1.176-1.857,2.782-1.857,4.551c0,0.53,0.07,1.042,0.189,1.536
	C110.139,19.667,110.143,19.686,110.146,19.702z M111.143,19.241c-0.006-0.035-0.014-0.071-0.02-0.107
	c-0.016-0.082-0.025-0.165-0.037-0.248c-0.148-1.155-0.021-3.062,1.777-4.84c0.822-0.729,1.863-1.217,3.016-1.342l-3.018,9.477
	C112.008,21.421,111.389,20.4,111.143,19.241z M120.818,22.992c1.521-1.302,2.012-2.925,2.135-4.171
	c0.006-0.055,0.008-0.111,0.012-0.167c0.01-0.127,0.018-0.25,0.02-0.368c0.002-0.058,0.01-0.114,0.01-0.173
	c0-0.051-0.008-0.1-0.008-0.15c-0.004-0.16-0.014-0.304-0.021-0.433c-0.004-0.034-0.004-0.069-0.008-0.104l8.58-1.761l-3.344,3.915
	l4.074,3.552l-5.479,0.461l1.133,5.671C125.984,27.571,122.242,24.289,120.818,22.992z"/>
<g>
	<path opacity="0.2" fill="#6C7988" enable-background="new    " d="M162.826,15.049l-1.908,2.482l-3.611,0.668l-2.162-1.295
		l-7.096,4.072l0.318-2.435l-0.914,4.862l7.248-4.742c1.148,0.782,2.762,1.494,4.189,1.324c1.453-0.173,3.141-1.03,3.891-2.28
		l8.125,2.688l-2.094-2.5l-5.906-1.867L162.826,15.049z"/>
</g>
<path fill="#6C7988" d="M173.615,11.77l-5.283-1.576l1.611-5.616l-7.662,5.583c-0.951-1.083-2.342-1.771-3.893-1.771
	c-1.898,0-3.559,1.029-4.463,2.556c-1.699-0.681-7.086-2.838-7.086-2.838l-1.436-0.574l2.875,5.053l-4.766,2.776l5.262,1.476
	l-2.363,5.801l8.598-5.135c0.908,0.782,2.088,1.259,3.379,1.259c1.77,0,3.334-0.893,4.271-2.25c1.871,0.607,8.029,2.45,8.314,2.535
	l1.52,0.454l-3.643-5.061L173.615,11.77z M156.135,10.148l0.871,7.291c-0.805-0.289-1.494-0.82-1.979-1.509
	c-0.482-0.715-1.117-2.141-0.365-4.066C154.986,11.163,155.498,10.569,156.135,10.148z M148.631,20.057l1.602-3.932l-3.969-1.114
	l3.484-2.029l-1.875-3.297c1.695,0.68,4.432,1.776,5.602,2.244c-0.174,0.519-0.271,1.071-0.271,1.648c0,1.15,0.381,2.21,1.016,3.071
	c0.014,0.017,0.025,0.035,0.037,0.051L148.631,20.057z M158.121,17.67l-0.957-8.013c0.389-0.121,0.799-0.187,1.225-0.187
	c0.164,0,0.326,0.013,0.486,0.032l0.945,7.918c-0.447,0.167-0.928,0.263-1.432,0.263C158.299,17.684,158.211,17.676,158.121,17.67z
	 M160.842,16.863L159.998,9.8c0.832,0.355,1.521,0.979,1.963,1.76c0.123,0.225,0.275,0.551,0.389,0.952
	c0.016,0.051,0.027,0.101,0.039,0.153c0.01,0.038,0.02,0.076,0.027,0.115c0.051,0.257,0.078,0.524,0.078,0.796
	c0,0.678-0.168,1.315-0.459,1.879c-0.02,0.035-0.033,0.07-0.055,0.104C161.697,16.073,161.305,16.514,160.842,16.863z
	 M169.762,17.557c-1.922-0.578-5.148-1.552-6.564-2.005c0.586-1.349,0.439-2.595,0.146-3.504c-0.006-0.021-0.016-0.04-0.021-0.06
	c-0.035-0.106-0.072-0.207-0.111-0.303c-0.031-0.083-0.064-0.164-0.104-0.245c-0.043-0.098-0.088-0.188-0.131-0.271
	c-0.018-0.033-0.033-0.066-0.053-0.099c-0.006-0.01-0.01-0.021-0.016-0.03l5.127-3.735l-1.039,3.619l3.863,1.152l-3.594,2.016
	L169.762,17.557z"/>
<g>
	<path fill="#6C7988" d="M149.383,33.441c-16.064,0-29.135,11.469-29.135,25.567s13.07,25.566,29.135,25.566
		s29.135-11.469,29.133-25.566C178.516,44.91,165.447,33.441,149.383,33.441z M171.25,58.025c0.459,0.887,0.539,1.584,0.242,2.07
		c-0.535,0.88-2.26,1.072-2.883,1.072h-4.336c-0.059,0.002-1.412,0.052-2.068,1.143c-0.547,0.911-0.412,2.207,0.4,3.85
		c0.32,0.646,0.367,1.158,0.141,1.524c-0.389,0.628-1.635,1.003-3.33,1.003c-1.455,0-2.684-0.281-2.977-0.475
		c-0.279-0.186-0.594-0.278-0.932-0.278c-1.676,0-3.832,2.331-6.59,7.125c-0.602,1.046-1.264,1.575-1.967,1.575
		c-2.061,0-4.461-4.125-5.215-5.715l-0.018-0.034c-0.037-0.063-0.9-1.571-2.326-1.571c-1.043,0-2.025,0.799-2.928,2.373
		c-0.453,0.795-0.9,1.196-1.328,1.196c-0.736,0-1.678-1.051-2.588-2.067c-0.877-0.979-1.783-1.992-2.809-2.482
		c-0.334-0.159-0.66-0.24-0.975-0.24c-1.729,0-2.4,2.328-2.66,3.964c-2.791-3.766-4.418-8.243-4.418-13.049
		c0-13.303,12.424-24.127,27.691-24.127c12.193,0,22.564,6.901,26.25,16.455c-0.316-0.106-0.613-0.144-0.842-0.144
		c-1.229,0-2.488,0.82-3.295,2.142C170.592,54.816,170.5,56.57,171.25,58.025z M149.383,83.135c-9.156,0-17.287-3.895-22.33-9.88
		c0.121-1.532,0.635-4.082,1.717-4.082c0.15,0,0.32,0.046,0.508,0.135c0.83,0.397,1.664,1.329,2.471,2.229
		c1.115,1.248,2.172,2.428,3.391,2.428c0.857,0,1.6-0.57,2.27-1.74c0.684-1.197,1.371-1.83,1.988-1.83
		c0.646,0,1.203,0.715,1.377,1.008c0.35,0.738,3.104,6.313,6.18,6.313c1.119,0,2.098-0.713,2.904-2.116
		c3.418-5.941,5.092-6.584,5.652-6.584c0.127,0,0.232,0.031,0.334,0.1c0.65,0.43,2.289,0.654,3.572,0.654
		c1.236,0,3.432-0.197,4.25-1.515c0.436-0.703,0.406-1.57-0.092-2.573c-0.627-1.269-0.781-2.238-0.445-2.808
		c0.348-0.584,1.17-0.625,1.16-0.625h4.326c0.289,0,2.857-0.046,3.801-1.591c0.506-0.83,0.439-1.883-0.203-3.129
		c-0.83-1.609-0.133-3.076,0.207-3.633c0.602-0.986,1.531-1.623,2.371-1.623c0.664,0,1.133,0.405,1.461,0.892
		c0.535,1.872,0.824,3.827,0.824,5.844C177.076,72.311,164.652,83.135,149.383,83.135z"/>
	<path fill="#6C7988" d="M134.803,46.896c0.154,0.254,0.074,0.588-0.18,0.742l-2.764,1.693c-0.254,0.154-0.588,0.074-0.742-0.18l0,0
		c-0.156-0.254-0.076-0.586,0.178-0.742l2.764-1.692C134.314,46.563,134.648,46.643,134.803,46.896L134.803,46.896z"/>
	<path fill="#6C7988" d="M144.121,43.451c-0.016,0.298-0.27,0.527-0.566,0.514l-3.236-0.161c-0.299-0.017-0.527-0.269-0.514-0.565
		l0,0c0.016-0.297,0.27-0.527,0.566-0.515l3.236,0.162C143.906,42.9,144.135,43.154,144.121,43.451L144.121,43.451z"/>
	<path fill="#6C7988" d="M130.076,53.533c-0.016,0.299-0.27,0.527-0.566,0.515l-3.236-0.162c-0.297-0.017-0.527-0.269-0.512-0.565
		l0,0c0.016-0.297,0.268-0.527,0.566-0.514l3.236,0.161C129.861,52.982,130.092,53.236,130.076,53.533L130.076,53.533z"/>
	<path fill="#6C7988" d="M157.803,39.851c-0.014,0.298-0.268,0.527-0.564,0.513L154,40.203c-0.297-0.016-0.527-0.269-0.512-0.566
		l0,0c0.016-0.298,0.268-0.527,0.566-0.514l3.236,0.162C157.59,39.299,157.818,39.553,157.803,39.851L157.803,39.851z"/>
	<path fill="#6C7988" d="M166.447,52.814c-0.016,0.297-0.27,0.526-0.566,0.512l-3.238-0.16c-0.297-0.016-0.525-0.27-0.512-0.565l0,0
		c0.016-0.299,0.27-0.528,0.566-0.514l3.236,0.162C166.232,52.262,166.461,52.516,166.447,52.814L166.447,52.814z"/>
	<path fill="#6C7988" d="M148.262,40.453c-0.195,0.223-0.537,0.244-0.762,0.047l-2.43-2.146c-0.225-0.197-0.244-0.539-0.047-0.762
		l0,0c0.197-0.223,0.537-0.245,0.762-0.048l2.43,2.146C148.439,39.888,148.461,40.23,148.262,40.453L148.262,40.453z"/>
	<path fill="#6C7988" d="M130.258,61.339c-0.195,0.224-0.537,0.246-0.762,0.047l-2.43-2.146c-0.225-0.196-0.244-0.537-0.047-0.762
		l0,0c0.197-0.223,0.537-0.244,0.762-0.048l2.43,2.146C130.434,60.773,130.455,61.115,130.258,61.339L130.258,61.339z"/>
	<path fill="#6C7988" d="M154.176,43.186c0.172,0.245,0.111,0.581-0.133,0.752l-2.656,1.857c-0.244,0.172-0.582,0.111-0.752-0.133
		l0,0c-0.172-0.244-0.109-0.58,0.133-0.752l2.656-1.857C153.668,42.882,154.006,42.941,154.176,43.186L154.176,43.186z"/>
	<path fill="#6C7988" d="M134.73,55.43c0.172,0.244,0.111,0.58-0.135,0.752l-2.654,1.857c-0.244,0.171-0.582,0.111-0.752-0.133l0,0
		c-0.172-0.246-0.111-0.582,0.133-0.754l2.654-1.857C134.223,55.126,134.559,55.185,134.73,55.43L134.73,55.43z"/>
	<path fill="#6C7988" d="M163.568,42.939c0.006,0.297-0.23,0.545-0.529,0.551l-3.24,0.066c-0.297,0.006-0.545-0.23-0.551-0.529l0,0
		c-0.006-0.297,0.23-0.545,0.529-0.551l3.238-0.066C163.316,42.404,163.561,42.641,163.568,42.939L163.568,42.939z"/>
	<path fill="#6C7988" d="M162.859,48.906c-0.221,0.199-0.563,0.184-0.764-0.039l-2.178-2.399c-0.201-0.221-0.184-0.563,0.037-0.765
		l0,0c0.221-0.198,0.563-0.184,0.764,0.039l2.178,2.399C163.096,48.363,163.08,48.706,162.859,48.906L162.859,48.906z"/>
</g>
<path opacity="0.2" fill="#6C7988" enable-background="new    " d="M149.383,84.574c-16.064,0-29.135-11.469-29.135-25.565
	c0-6.405,2.705-12.267,7.158-16.757c-6.246,4.691-8.852,10.433-8.852,18.197c0,14.097,13.205,25.207,27.969,25.687
	c8.762,0.285,16.432-2.313,21.775-7.707C163.207,82.256,156.598,84.574,149.383,84.574z"/>
<g>
	<path fill="#6C7988" d="M149.344,67.109c-6.502,0-11.793-4.401-11.793-9.813s5.291-9.813,11.793-9.813s11.793,4.401,11.793,9.813
		S155.846,67.109,149.344,67.109z M149.344,48.925c-5.709,0-10.354,3.756-10.354,8.372c0,4.617,4.645,8.373,10.354,8.373
		s10.354-3.756,10.354-8.373C159.697,52.681,155.053,48.925,149.344,48.925z"/>
</g>
</svg>
