<?xml version="1.0" encoding="utf-8"?>
<!-- Generator: Adobe Illustrator 15.0.0, SVG Export Plug-In . SVG Version: 6.00 Build 0)  -->
<!DOCTYPE svg PUBLIC "-//W3C//DTD SVG 1.1//EN" "http://www.w3.org/Graphics/SVG/1.1/DTD/svg11.dtd">
<svg version="1.1" id="notebook" xmlns="http://www.w3.org/2000/svg" xmlns:xlink="http://www.w3.org/1999/xlink" x="0px" y="0px"
	 width="158.5px" height="113.118px" viewBox="0 0 158.5 113.118" enable-background="new 0 0 158.5 113.118" xml:space="preserve">
<g>
	<path fill="#6C7988" d="M69.381,27.455H25.625v-5.563h43.756V27.455z M26.366,26.712h42.272v-4.079H26.366V26.712z"/>
</g>
<g>
	<path fill="#6C7988" d="M69.381,37.096H25.625v-5.562h43.756V37.096z M26.366,36.354h42.272v-4.079H26.366V36.354z"/>
</g>
<g>
	<path fill="#6C7988" d="M69.381,46.366H25.625v-5.563h43.756V46.366z M26.366,45.625h42.272v-4.079H26.366V45.625z"/>
</g>
<g>
	<rect x="26.366" y="101.988" fill="#6C7988" width="21.137" height="0.74"/>
</g>
<g>
	<rect x="26.366" y="99.764" fill="#6C7988" width="21.137" height="0.74"/>
</g>
<g>
	<rect x="26.366" y="97.538" fill="#6C7988" width="21.137" height="0.741"/>
</g>
<g>
	<g>
		<rect x="6.713" y="24.488" fill="#6C7988" width="1.483" height="7.046"/>
	</g>
	<g>
		<rect x="6.713" y="43.398" fill="#6C7988" width="1.483" height="6.675"/>
	</g>
	<g>
		<rect x="6.713" y="89.75" fill="#6C7988" width="1.483" height="7.047"/>
	</g>
	<g>
		<rect x="6.713" y="80.48" fill="#6C7988" width="1.483" height="6.674"/>
	</g>
	<g>
		<rect x="6.713" y="34.129" fill="#6C7988" width="1.483" height="6.674"/>
	</g>
	<g>
		<rect x="6.713" y="15.218" fill="#6C7988" width="1.483" height="6.675"/>
	</g>
	<g>
		<rect x="6.713" y="71.209" fill="#6C7988" width="1.483" height="6.678"/>
	</g>
	<g>
		<rect x="6.713" y="52.669" fill="#6C7988" width="1.483" height="6.677"/>
	</g>
	<g>
		<rect x="6.713" y="61.939" fill="#6C7988" width="1.483" height="6.677"/>
	</g>
</g>
<g>
	<path fill="#6C7988" d="M5.416,24.858h3.53c0.554,0.783,1.464,1.298,2.495,1.298c1.687,0,3.059-1.373,3.059-3.06
		c0.001-1.687-1.372-3.059-3.059-3.059c-1.11,0-2.082,0.596-2.618,1.483H5.416c-0.92,0-1.669,0.749-1.669,1.668
		S4.496,24.858,5.416,24.858z M11.44,20.78c1.277,0,2.317,1.04,2.317,2.317c0,1.277-1.04,2.317-2.317,2.317
		c-0.573,0-1.096-0.21-1.5-0.556h1.407c0.92,0,1.669-0.749,1.669-1.669s-0.749-1.668-1.669-1.668H9.752
		C10.175,21.067,10.772,20.78,11.44,20.78z M5.416,22.263h5.933c0.511,0,0.927,0.417,0.927,0.927c0,0.51-0.416,0.927-0.927,0.927
		H5.416c-0.511,0-0.928-0.416-0.928-0.927C4.487,22.679,4.904,22.263,5.416,22.263z"/>
	<path fill="#6C7988" d="M5.416,34.5h3.53c0.554,0.783,1.464,1.298,2.495,1.298c1.687,0,3.059-1.372,3.059-3.059
		c0.001-1.688-1.372-3.06-3.059-3.06c-1.11,0-2.082,0.596-2.618,1.483H5.416c-0.92,0-1.669,0.748-1.669,1.669
		C3.747,33.75,4.496,34.5,5.416,34.5z M11.44,30.42c1.277,0,2.317,1.04,2.317,2.318c0,1.277-1.04,2.317-2.317,2.317
		c-0.573,0-1.096-0.211-1.5-0.557h1.407c0.92,0,1.669-0.749,1.669-1.668c0-0.921-0.749-1.669-1.669-1.669H9.752
		C10.175,30.708,10.772,30.42,11.44,30.42z M5.416,31.904h5.933c0.511,0,0.927,0.416,0.927,0.928c0,0.511-0.416,0.927-0.927,0.927
		H5.416c-0.511,0-0.928-0.416-0.928-0.927C4.487,32.319,4.904,31.904,5.416,31.904z"/>
	<path fill="#6C7988" d="M5.416,43.77h3.53c0.554,0.783,1.464,1.298,2.495,1.298c1.687,0,3.059-1.372,3.059-3.06
		c0.001-1.687-1.372-3.06-3.059-3.06c-1.11,0-2.082,0.596-2.618,1.484H5.416c-0.92,0-1.669,0.749-1.669,1.668
		C3.747,43.021,4.496,43.77,5.416,43.77z M11.44,39.69c1.277,0,2.317,1.04,2.317,2.317c0,1.278-1.04,2.318-2.317,2.318
		c-0.573,0-1.096-0.211-1.5-0.557h1.407c0.92,0,1.669-0.749,1.669-1.669c0-0.919-0.749-1.668-1.669-1.668H9.752
		C10.175,39.979,10.772,39.69,11.44,39.69z M5.416,41.174h5.933c0.511,0,0.927,0.416,0.927,0.927c0,0.512-0.416,0.927-0.927,0.927
		H5.416c-0.511,0-0.928-0.415-0.928-0.927C4.487,41.59,4.904,41.174,5.416,41.174z"/>
	<path fill="#6C7988" d="M5.416,53.041h3.53c0.554,0.783,1.464,1.298,2.495,1.298c1.687,0,3.059-1.373,3.059-3.06
		c0.001-1.688-1.372-3.06-3.059-3.06c-1.11,0-2.082,0.596-2.618,1.484H5.416c-0.92,0-1.669,0.749-1.669,1.668
		C3.747,52.292,4.496,53.041,5.416,53.041z M11.44,48.961c1.277,0,2.317,1.039,2.317,2.317c0,1.277-1.04,2.316-2.317,2.316
		c-0.573,0-1.096-0.209-1.5-0.556h1.407c0.92,0,1.669-0.749,1.669-1.669c0-0.919-0.749-1.668-1.669-1.668H9.752
		C10.175,49.249,10.772,48.961,11.44,48.961z M5.416,50.444h5.933c0.511,0,0.927,0.416,0.927,0.927c0,0.511-0.416,0.927-0.927,0.927
		H5.416c-0.511,0-0.928-0.416-0.928-0.927C4.487,50.86,4.904,50.444,5.416,50.444z"/>
	<path fill="#6C7988" d="M5.416,62.311h3.53c0.554,0.783,1.464,1.299,2.495,1.299c1.687,0,3.059-1.373,3.059-3.061
		c0.001-1.688-1.372-3.061-3.059-3.061c-1.11,0-2.082,0.596-2.618,1.484H5.416c-0.92,0-1.669,0.75-1.669,1.667
		C3.747,61.563,4.496,62.311,5.416,62.311z M11.44,58.232c1.277,0,2.317,1.04,2.317,2.317s-1.04,2.316-2.317,2.316
		c-0.573,0-1.096-0.209-1.5-0.556h1.407c0.92,0,1.669-0.75,1.669-1.67c0-0.918-0.749-1.668-1.669-1.668H9.752
		C10.175,58.519,10.772,58.232,11.44,58.232z M5.416,59.715h5.933c0.511,0,0.927,0.416,0.927,0.928s-0.416,0.928-0.927,0.928H5.416
		c-0.511,0-0.928-0.416-0.928-0.928S4.904,59.715,5.416,59.715z"/>
	<path fill="#6C7988" d="M5.416,71.583h3.53c0.554,0.783,1.464,1.297,2.495,1.297c1.687,0,3.059-1.373,3.059-3.06
		c0.001-1.688-1.372-3.062-3.059-3.062c-1.11,0-2.082,0.597-2.618,1.482H5.416c-0.92,0-1.669,0.75-1.669,1.67
		S4.496,71.583,5.416,71.583z M11.44,67.502c1.277,0,2.317,1.039,2.317,2.317c0,1.275-1.04,2.315-2.317,2.315
		c-0.573,0-1.096-0.209-1.5-0.557h1.407c0.92,0,1.669-0.75,1.669-1.668c0-0.92-0.749-1.67-1.669-1.67H9.752
		C10.175,67.79,10.772,67.502,11.44,67.502z M5.416,68.984h5.933c0.511,0,0.927,0.418,0.927,0.929c0,0.51-0.416,0.928-0.927,0.928
		H5.416c-0.511,0-0.928-0.418-0.928-0.928C4.488,69.402,4.904,68.984,5.416,68.984z"/>
	<path fill="#6C7988" d="M5.416,80.852h3.53C9.5,81.635,10.41,82.15,11.44,82.15c1.687,0,3.059-1.373,3.059-3.062
		c0.001-1.688-1.372-3.061-3.059-3.061c-1.11,0-2.082,0.598-2.618,1.482H5.416c-0.92,0-1.669,0.75-1.669,1.668
		C3.747,80.102,4.496,80.852,5.416,80.852z M11.44,76.773c1.277,0,2.317,1.039,2.317,2.313c0,1.276-1.04,2.316-2.317,2.316
		c-0.573,0-1.096-0.211-1.5-0.557h1.407c0.92,0,1.669-0.748,1.669-1.668s-0.749-1.67-1.669-1.67H9.752
		C10.175,77.061,10.772,76.773,11.44,76.773z M5.416,78.256h5.933c0.511,0,0.927,0.416,0.927,0.928c0,0.51-0.416,0.928-0.927,0.928
		H5.416c-0.511,0-0.928-0.418-0.928-0.928C4.487,78.672,4.904,78.256,5.416,78.256z"/>
	<path fill="#6C7988" d="M5.416,90.122h3.53C9.5,90.904,10.41,91.42,11.44,91.42c1.687,0,3.059-1.373,3.059-3.062
		c0.001-1.688-1.372-3.06-3.059-3.06c-1.11,0-2.082,0.597-2.618,1.482H5.416c-0.92,0-1.669,0.746-1.669,1.668
		C3.747,89.37,4.496,90.122,5.416,90.122z M11.44,86.043c1.277,0,2.317,1.039,2.317,2.315s-1.04,2.317-2.317,2.317
		c-0.573,0-1.096-0.211-1.5-0.557h1.407c0.92,0,1.669-0.75,1.669-1.67c0-0.922-0.749-1.668-1.669-1.668H9.752
		C10.175,86.331,10.772,86.043,11.44,86.043z M5.416,87.525h5.933c0.511,0,0.927,0.416,0.927,0.929c0,0.51-0.416,0.928-0.927,0.928
		H5.416c-0.511,0-0.928-0.418-0.928-0.928C4.487,87.941,4.904,87.525,5.416,87.525z"/>
	<path fill="#6C7988" d="M96.078,15.218h-5.932V7.802c0-2.863-2.328-5.191-5.191-5.191H6.713v9.641H5.416
		c-0.92,0-1.669,0.749-1.669,1.668c0,0.92,0.749,1.669,1.669,1.669h3.53c0.554,0.784,1.464,1.298,2.495,1.298
		c1.687,0,3.059-1.373,3.059-3.059c0.001-1.687-1.372-3.06-3.059-3.06c-1.11,0-2.082,0.596-2.618,1.483H8.196V4.093H83.1v105.312
		H8.196v-9.641h0.749c0.554,0.781,1.464,1.297,2.495,1.297c1.687,0,3.059-1.373,3.059-3.061c0.001-1.687-1.372-3.06-3.059-3.06
		c-1.11,0-2.082,0.597-2.618,1.481H5.416c-0.92,0-1.669,0.748-1.669,1.67c0,0.918,0.749,1.668,1.669,1.668h1.298v11.123h78.242
		c2.862,0,5.19-2.325,5.19-5.188V48.59h3.707c1.271,0,2.226-1.004,2.226-2.335V36.37l-0.006,0.005
		c0.004-0.044,0.006-0.087,0.006-0.132v-9.885l-0.006,0.005c0.004-0.044,0.006-0.087,0.006-0.132L96.078,15.218L96.078,15.218z
		 M4.487,13.919c0-0.511,0.417-0.927,0.928-0.927h5.933c0.511,0,0.927,0.416,0.927,0.927c0,0.511-0.416,0.927-0.927,0.927H5.416
		C4.904,14.847,4.487,14.431,4.487,13.919z M11.44,11.51c1.277,0,2.317,1.04,2.317,2.318c0,1.278-1.04,2.317-2.317,2.317
		c-0.573,0-1.096-0.21-1.5-0.556h1.407c0.92,0,1.669-0.749,1.669-1.669s-0.749-1.668-1.669-1.668H9.752
		C10.175,11.797,10.772,11.51,11.44,11.51z M11.44,95.686c1.277,0,2.317,1.039,2.317,2.316c0,1.276-1.04,2.315-2.317,2.315
		c-0.573,0-1.096-0.209-1.5-0.555h1.407c0.92,0,1.669-0.75,1.669-1.671c0-0.92-0.749-1.67-1.669-1.67H9.752
		C10.175,95.973,10.772,95.686,11.44,95.686z M4.487,98.096c0-0.512,0.417-0.93,0.928-0.93h5.933c0.511,0,0.927,0.418,0.927,0.93
		c0,0.51-0.416,0.926-0.927,0.926H5.416C4.904,99.021,4.487,98.604,4.487,98.096z M88.662,15.833l-0.008,0.13
		c0,0.098,0.008,9.847,0.008,11.861c0,0.211,0,0.462,0,0.742c0,2.17,0,6.204,0,8.528l-0.008,0.747c0,0.092,0.008,7.443,0.008,10.007
		v0.741v57.106c0,2.046-1.662,3.707-3.707,3.707h-1.113V4.094h1.113c2.045,0,3.707,1.663,3.707,3.708V15.833z M91.041,16.701h3.031
		l-3.852,3.85c-0.01-1.136-0.016-2.196-0.021-3.012L91.041,16.701z M94.596,46.255c0,0.41-0.229,0.852-0.74,0.852h-3.602
		c-0.006-2.656-0.043-6.488-0.057-8.528h3.656h0.742V46.255L94.596,46.255z M94.596,36.243c0,0.411-0.229,0.853-0.74,0.853h-3.6
		c0-2.781-0.004-6.518-0.004-8.528h3.604h0.74V36.243z M94.596,26.23c0,0.411-0.229,0.853-0.74,0.853h-0.219l0.959-0.959V26.23z
		 M94.596,25.076l-2.008,2.008h-2.334c0-0.183,0-0.385-0.002-0.603l4.344-4.343V25.076z M94.596,21.089l-4.348,4.347
		c-0.006-1.141-0.014-2.507-0.021-3.844l4.369-4.368V21.089L94.596,21.089z"/>
</g>
<g opacity="0.2">
	<path fill="#6C7988" d="M6.713,110.887V99.764H5.416c-0.92,0-1.669-0.75-1.669-1.668c0-0.922,0.749-1.67,1.669-1.67h1.298v-6.305
		H5.416c-0.92,0-1.669-0.75-1.669-1.668c0-0.92,0.749-1.67,1.669-1.67h1.298v-5.933H5.416c-0.92,0-1.669-0.75-1.669-1.67
		c0-0.918,0.749-1.668,1.669-1.668h1.298v-5.933H5.416c-0.92,0-1.669-0.75-1.669-1.668c0-0.92,0.749-1.67,1.669-1.67h1.298V62.31
		H5.416c-0.92,0-1.669-0.75-1.669-1.67c0-0.918,0.749-1.668,1.669-1.668h1.298v-5.934H5.416c-0.92,0-1.669-0.749-1.669-1.669
		c0-0.919,0.749-1.668,1.669-1.668h1.298v-5.934H5.416c-0.92,0-1.669-0.749-1.669-1.669c0-0.919,0.749-1.668,1.669-1.668h1.298
		v-5.934H5.416c-0.92,0-1.669-0.749-1.669-1.668c0-0.921,0.749-1.669,1.669-1.669h1.298v-6.304H5.416
		c-0.92,0-1.669-0.749-1.669-1.669s0.749-1.668,1.669-1.668h1.298v-5.933H5.416c-0.92,0-1.669-0.749-1.669-1.669
		s0.749-1.668,1.669-1.668h1.298v-5.19H4.487c0,0.781,0,4.155,0,9.271H2.449c-0.717,0-1.298,0.581-1.298,1.298
		c0,0.717,0.581,1.298,1.298,1.298h2.039c0,2.03,0,4.269,0,6.674H2.449c-0.717,0-1.298,0.581-1.298,1.298
		c0,0.717,0.581,1.298,1.298,1.298h2.039c0,2.236,0,4.593,0,7.046H2.449c-0.717,0-1.298,0.581-1.298,1.298
		c0,0.716,0.581,1.297,1.298,1.297h2.039c0,2.168,0,4.398,0,6.676H2.449c-0.717,0-1.298,0.581-1.298,1.297
		c0,0.717,0.581,1.298,1.298,1.298h2.039c0,2.195,0,4.425,0,6.675H2.449c-0.717,0-1.298,0.581-1.298,1.298s0.581,1.298,1.298,1.298
		h2.039c0,2.218,0,4.447,0,6.675H2.449c-0.717,0-1.298,0.58-1.298,1.299c0,0.717,0.581,1.297,1.298,1.297h2.039
		c0,2.236,0,4.467,0,6.676H2.449c-0.717,0-1.298,0.58-1.298,1.299c0,0.717,0.581,1.299,1.298,1.299h2.039c0,2.259,0,4.486,0,6.675
		H2.449c-0.717,0-1.298,0.581-1.298,1.299s0.581,1.299,1.298,1.299h2.039c0,2.285,0,4.519,0,6.675H2.449
		c-0.717,0-1.298,0.58-1.298,1.297c0,0.719,0.581,1.299,1.298,1.299h2.039c0,2.475,0,4.834,0,7.045H2.449
		c-0.717,0-1.298,0.58-1.298,1.299c0,0.717,0.581,1.299,1.298,1.299h2.039c0,4.375,0,7.313,0,10.014h74.534
		c1.938,0,3.578-0.498,4.189-2.229H6.713V110.887z"/>
</g>
<path fill="#6C7988" d="M112.193,1.167l-5.656,20.888v75.607v5.655v5.656h11.313v-5.656v-5.655V22.055L112.193,1.167z
	 M110.883,11.413h2.619l2.852,10.528c-0.502,0.604-0.797,0.684-0.914,0.677c-0.357-0.014-0.775-0.741-1.023-1.176l-0.381-0.664
	l-0.424,0.639c-0.334,0.505-0.959,1.451-1.521,1.412c-0.381-0.023-0.827-0.507-1.264-1.364l-0.361-0.718l-0.448,0.667
	c-0.535,0.796-1.039,1.211-1.412,1.161c-0.237-0.03-0.448-0.244-0.61-0.479L110.883,11.413z M116.436,99.077v2.827h-8.482v-2.827
	H116.436z M110.779,97.663V23.091c0.391,0.427,0.807,0.651,1.254,0.677c0.029,0.002,0.059,0.003,0.088,0.003
	c0.588,0,1.084-0.352,1.486-0.781v74.67L110.779,97.663L110.779,97.663z M107.951,23.333c0.158,0.087,0.334,0.152,0.527,0.177
	c0.447,0.059,0.9-0.102,1.354-0.47v74.623h-1.885v-74.33H107.951z M116.436,107.561h-8.482v-4.242h8.482V107.561z M114.549,97.663
	V23.203c0.244,0.203,0.525,0.345,0.855,0.356c0.34,0.015,0.68-0.107,1.029-0.375v74.479H114.549L114.549,97.663z"/>
<g opacity="0.2">
	<polygon fill="#6C7988" points="106.537,108.975 106.537,22.055 110.76,6.46 109.836,3.052 104.182,23.938 104.182,110.859 
		115.492,110.859 115.492,108.975 	"/>
</g>
<g opacity="0.2">
	<path fill="#6C7988" d="M131.292,111.159c0.441,0,0.708-0.3,0.708-0.741v-2.819l-3.467-6.854c-0.041-0.091-0.236-0.189-0.236-0.289
		c0,0-0.105-29.007-0.105-53.551c0-8.999-0.042-17.397-0.035-23.547c0.005-3.075-0.009-8.886-0.006-9.349
		c0.009-0.842,0.057-1.398,0.759-1.398c0.261,0,1.091,0,1.091-0.002V6.831c0-1.507,0.935-2.732,2.291-3.185
		c-0.409-0.395-0.988-0.587-1.605-0.587h-0.166c-1.5,0-3.02,1.108-3.051,2.813l0.031,6.609c0,0.002-0.281,0.016-0.469,0.016
		c-1.031,0-1.031,0.969-1.031,0.969v86.056l3.461,7.474l0.539,0.002v3.421C130,111.31,130.85,111.159,131.292,111.159z"/>
</g>
<path fill="#6C7988" d="M138.763,13.291c0-0.386-0.229-0.699-0.616-0.699c-0.299,0-0.146,0-1.146,0.001V6.831
	c0.021-2.313-1.63-3.771-3.515-3.771c0,0-3.485-0.125-3.485,3.771v5.776c0,0.001-0.836,0.002-1.097,0.002
	c-0.702,0-0.731,0.556-0.737,1.398c-0.006,0.463-0.021,1.144-0.024,2.017c-0.007,1.744-0.017,84.43-0.017,84.43
	c0,0.1,0.02,0.198,0.063,0.289l3.396,7.475c0.113,0.249,0.357,0.409,0.632,0.409l0.386,0.001v2.403c0,0.6,0.486,1.086,1.086,1.086
	s1.086-0.486,1.086-1.086v-2.396l0.43,0.001c0.289,0.001,0.532-0.176,0.639-0.445l2.999-7.577c0.032-0.082,0.042-0.169,0.042-0.256
	L138.763,13.291z M132,6.831c0-1.834,1.485-1.771,1.485-1.771c0.999,0,1.515,0.659,1.515,1.771v5.765
	c-1,0.001-0.885,0.003-1.651,0.004c-0.67,0.002-1.349,0.004-1.349,0.004V6.831z M133.256,14c1.516-0.003,3.063-0.007,4.114-0.008
	l0.125,85.317H132v-85.25c0-0.02-0.009-0.037-0.012-0.056C132.402,14.002,132.825,14.001,133.256,14z M129.541,14.008
	c0.412,0,0.92-0.002,1.47-0.003C131.009,14.024,131,14.04,131,14.059v85.25h-1.476C129.522,89.701,129.522,16.015,129.541,14.008z
	 M134.744,107.235l-2.067-0.005l-2.921-6.421h7.512L134.744,107.235z"/>
<path fill="#6C7988" d="M156,105.842V91.276c0-1.225-0.992-2.217-2.217-2.217h-5.566c-1.225,0-2.217,0.992-2.217,2.217v14.566
	c0,1.225,0.992,2.217,2.217,2.217h5.566C155.008,108.059,156,107.067,156,105.842z M148.739,91.059h4.521
	c0.408,0,0.739,0.331,0.739,0.739v11.261h-6V91.798C148,91.39,148.331,91.059,148.739,91.059z M148.739,106.059
	c-0.408,0-0.739-0.331-0.739-0.739v-1.261h6v1.261c0,0.408-0.331,0.739-0.739,0.739H148.739z"/>
<g>
	<g opacity="0.2">
		<path fill="#6C7988" d="M146,105.414c0,1.223,0.944,2.158,2.166,2.158l6.195,0.057c0,1.021-0.738,1.431-1.426,1.431h-5.482
			c-1.672,0-2.453-1.724-2.453-2.539V92.483c0-0.688,0-1.261,1-1.425V105.414z"/>
	</g>
</g>
</svg>
