<?xml version="1.0" encoding="utf-8"?>
<!-- Generator: Adobe Illustrator 15.0.0, SVG Export Plug-In . SVG Version: 6.00 Build 0)  -->
<!DOCTYPE svg PUBLIC "-//W3C//DTD SVG 1.1//EN" "http://www.w3.org/Graphics/SVG/1.1/DTD/svg11.dtd">
<svg version="1.1" id="devices" xmlns="http://www.w3.org/2000/svg" xmlns:xlink="http://www.w3.org/1999/xlink" x="0px" y="0px"
	 width="261.417px" height="316.25px" viewBox="0 0 261.417 316.25" enable-background="new 0 0 261.417 316.25"
	 xml:space="preserve">
<g>
	<path fill="#6C7988" d="M158.257,179.535h-55.689c-0.756,0-1.371-0.615-1.371-1.371v-39.543c0-0.756,0.615-1.371,1.371-1.371
		h55.689c0.757,0,1.369,0.615,1.369,1.371v39.543C159.626,178.92,159.014,179.535,158.257,179.535z M102.733,177.998h55.355v-39.21
		h-55.355V177.998z"/>
</g>
<g>
	<path fill="#6C7988" d="M51.992,124.949H35.846V69.595h16.146V124.949z M37.385,123.412h13.07V71.133h-13.07V123.412
		L37.385,123.412z"/>
</g>
<g>
	<path fill="#6C7988" d="M224.208,124.949h-16.146V69.595h16.146V124.949z M209.602,123.412h13.066V71.133h-13.066V123.412z"/>
</g>
<path fill="#6C7988" d="M256.45,5.402c-0.943-1.787-3.123-2.694-6.488-2.694c-3.246,0.001-30.771,0.001-66.019,0.001H12.07
	c0,0-0.135-0.005-0.367-0.005c-1.914,0-6.532,0.302-8.105,3.097C2.733,7.34,2.944,9.192,4.23,11.309L28.303,50.77
	c0.282,0.499,1.415,2.048,4.758,2.89c-2.947,1.922-4.902,5.243-4.902,9.016v117.629c0,5.938,4.826,10.764,10.764,10.764h180.671
	c5.938,0,10.766-4.824,10.766-10.764V62.676c0-3.672-1.854-6.917-4.666-8.86c2.178-0.717,5.611-2.685,9.188-8.049
	c5.289-7.932,19.824-32.864,20.744-34.442C255.973,10.8,257.764,7.891,256.45,5.402z M110.755,187.992
	c0.596-1.354,1.94-2.307,3.512-2.307h30.752c1.57,0,2.918,0.953,3.514,2.307H110.755z M227.282,62.676v117.629
	c0,4.237-3.449,7.688-7.688,7.688h-69.419c-0.664-2.222-2.724-3.845-5.155-3.845h-30.751c-2.434,0-4.49,1.623-5.154,3.845h-70.19
	c-4.24,0-7.688-3.449-7.688-7.688V62.676c0-4.239,3.447-7.688,7.688-7.688h13.109c-0.025,0.124-0.039,0.252-0.039,0.384v1.538
	c0,1.06,0.861,1.922,1.922,1.922h149.919c1.062,0,1.923-0.862,1.923-1.922v-1.538c0-0.132-0.014-0.26-0.039-0.384h13.879
	C223.833,54.988,227.282,58.436,227.282,62.676z M204.986,55.372v1.538c0,0.636-0.519,1.153-1.152,1.153H53.914
	c-0.636,0-1.153-0.518-1.153-1.153v-1.538c0-0.136,0.028-0.264,0.071-0.384h152.083C204.959,55.108,204.986,55.236,204.986,55.372z
	 M224.104,45.762H35.979L16.583,11.165h228.11L224.104,45.762z"/>
<path fill="#6C7988" d="M64.293,73.51c0,0.385-0.313,0.698-0.698,0.698h-7.061c-0.386,0-0.697-0.313-0.697-0.698v-3.217
	c0-0.385,0.313-0.697,0.697-0.697h7.061c0.387,0,0.698,0.312,0.698,0.698V73.51z"/>
<path fill="#6C7988" d="M64.293,83.504c0,0.385-0.313,0.698-0.698,0.698h-7.061c-0.386,0-0.697-0.313-0.697-0.698v-7.062
	c0-0.385,0.313-0.698,0.697-0.698h7.061c0.387,0,0.698,0.312,0.698,0.698V83.504z"/>
<path fill="#6C7988" d="M74.287,83.504c0,0.385-0.313,0.698-0.696,0.698h-7.062c-0.386,0-0.699-0.313-0.699-0.698v-7.062
	c0-0.385,0.313-0.698,0.699-0.698h7.062c0.385,0,0.696,0.312,0.696,0.698V83.504z"/>
<path fill="#6C7988" d="M84.283,83.504c0,0.385-0.313,0.698-0.698,0.698h-7.061c-0.385,0-0.698-0.313-0.698-0.698v-7.062
	c0-0.385,0.313-0.698,0.698-0.698h7.061c0.385,0,0.698,0.312,0.698,0.698V83.504z"/>
<path fill="#6C7988" d="M94.278,83.504c0,0.385-0.313,0.698-0.699,0.698h-7.061c-0.385,0-0.697-0.313-0.697-0.698v-7.062
	c0-0.385,0.313-0.698,0.697-0.698h7.061c0.387,0,0.699,0.312,0.699,0.698V83.504z"/>
<path fill="#6C7988" d="M104.272,83.504c0,0.385-0.313,0.698-0.698,0.698h-7.062c-0.388,0-0.697-0.313-0.697-0.698v-7.062
	c0-0.385,0.311-0.698,0.697-0.698h7.062c0.386,0,0.698,0.312,0.698,0.698V83.504z"/>
<path fill="#6C7988" d="M114.267,83.504c0,0.385-0.313,0.698-0.697,0.698h-7.061c-0.39,0-0.699-0.313-0.699-0.698v-7.062
	c0-0.385,0.311-0.698,0.699-0.698h7.061c0.385,0,0.697,0.312,0.697,0.698V83.504z"/>
<path fill="#6C7988" d="M124.261,83.504c0,0.385-0.313,0.698-0.697,0.698h-7.061c-0.389,0-0.699-0.313-0.699-0.698v-7.062
	c0-0.385,0.312-0.698,0.699-0.698h7.061c0.385,0,0.697,0.312,0.697,0.698V83.504z"/>
<path fill="#6C7988" d="M134.257,83.504c0,0.385-0.313,0.698-0.698,0.698h-7.063c-0.387,0-0.696-0.313-0.696-0.698v-7.062
	c0-0.385,0.311-0.698,0.696-0.698h7.063c0.385,0,0.698,0.312,0.698,0.698V83.504z"/>
<path fill="#6C7988" d="M144.25,83.504c0,0.385-0.313,0.698-0.698,0.698h-7.061c-0.39,0-0.698-0.313-0.698-0.698v-7.062
	c0-0.385,0.313-0.698,0.698-0.698h7.061c0.386,0,0.698,0.312,0.698,0.698V83.504z"/>
<path fill="#6C7988" d="M154.244,83.504c0,0.385-0.313,0.698-0.696,0.698h-7.062c-0.391,0-0.699-0.313-0.699-0.698v-7.062
	c0-0.385,0.313-0.698,0.699-0.698h7.062c0.386,0,0.696,0.312,0.696,0.698V83.504z"/>
<path fill="#6C7988" d="M164.238,83.504c0,0.385-0.313,0.698-0.696,0.698h-7.062c-0.39,0-0.697-0.313-0.697-0.698v-7.062
	c0-0.385,0.313-0.698,0.697-0.698h7.062c0.385,0,0.696,0.312,0.696,0.698V83.504z"/>
<path fill="#6C7988" d="M174.234,83.504c0,0.385-0.313,0.698-0.698,0.698h-7.062c-0.388,0-0.697-0.313-0.697-0.698v-7.062
	c0-0.385,0.312-0.698,0.697-0.698h7.062c0.385,0,0.698,0.312,0.698,0.698V83.504z"/>
<path fill="#6C7988" d="M184.229,83.504c0,0.385-0.313,0.698-0.699,0.698h-7.061c-0.388,0-0.697-0.313-0.697-0.698v-7.062
	c0-0.385,0.313-0.698,0.697-0.698h7.061c0.388,0,0.699,0.312,0.699,0.698V83.504z"/>
<path fill="#6C7988" d="M114.267,93.498c0,0.386-0.313,0.698-0.697,0.698h-7.061c-0.39,0-0.699-0.313-0.699-0.698v-7.061
	c0-0.385,0.311-0.698,0.699-0.698h7.061c0.385,0,0.697,0.312,0.697,0.698V93.498z"/>
<path fill="#6C7988" d="M104.272,93.498c0,0.386-0.313,0.698-0.698,0.698h-7.062c-0.388,0-0.697-0.313-0.697-0.698v-7.061
	c0-0.385,0.311-0.698,0.697-0.698h7.062c0.386,0,0.698,0.312,0.698,0.698V93.498z"/>
<path fill="#6C7988" d="M94.278,93.498c0,0.386-0.313,0.698-0.699,0.698h-7.061c-0.385,0-0.697-0.313-0.697-0.698v-7.061
	c0-0.385,0.313-0.698,0.697-0.698h7.061c0.387,0,0.699,0.312,0.699,0.698V93.498z"/>
<path fill="#6C7988" d="M84.283,93.498c0,0.386-0.313,0.698-0.698,0.698h-7.061c-0.385,0-0.698-0.313-0.698-0.698v-7.061
	c0-0.385,0.313-0.698,0.698-0.698h7.061c0.385,0,0.698,0.312,0.698,0.698V93.498z"/>
<path fill="#6C7988" d="M74.287,93.498c0,0.386-0.313,0.698-0.696,0.698H56.534c-0.386,0-0.697-0.313-0.697-0.698v-7.061
	c0-0.385,0.313-0.698,0.697-0.698h17.057c0.385,0,0.696,0.312,0.696,0.698V93.498z"/>
<path fill="#6C7988" d="M75.825,103.493c0,0.386-0.313,0.698-0.697,0.698H56.534c-0.386,0-0.697-0.313-0.697-0.698v-7.061
	c0-0.386,0.313-0.698,0.697-0.698h18.594c0.385,0,0.697,0.311,0.697,0.698V103.493z"/>
<path fill="#6C7988" d="M77.364,113.488c0,0.386-0.313,0.697-0.699,0.697h-20.13c-0.386,0-0.698-0.313-0.698-0.697v-7.063
	c0-0.387,0.313-0.696,0.698-0.696h20.13c0.387,0,0.699,0.313,0.699,0.696V113.488z"/>
<path fill="#6C7988" d="M85.821,103.493c0,0.386-0.313,0.698-0.699,0.698h-7.061c-0.385,0-0.697-0.313-0.697-0.698v-7.061
	c0-0.386,0.313-0.698,0.697-0.698h7.061c0.387,0,0.699,0.311,0.699,0.698V103.493z"/>
<path fill="#6C7988" d="M124.261,93.498c0,0.386-0.313,0.698-0.697,0.698h-7.061c-0.389,0-0.699-0.313-0.699-0.698v-7.061
	c0-0.385,0.312-0.698,0.699-0.698h7.061c0.385,0,0.697,0.312,0.697,0.698V93.498z"/>
<path fill="#6C7988" d="M134.257,93.498c0,0.386-0.313,0.698-0.698,0.698h-7.063c-0.387,0-0.696-0.313-0.696-0.698v-7.061
	c0-0.385,0.311-0.698,0.696-0.698h7.063c0.385,0,0.698,0.312,0.698,0.698V93.498z"/>
<path fill="#6C7988" d="M144.25,93.498c0,0.386-0.313,0.698-0.698,0.698h-7.061c-0.39,0-0.698-0.313-0.698-0.698v-7.061
	c0-0.385,0.313-0.698,0.698-0.698h7.061c0.386,0,0.698,0.312,0.698,0.698V93.498z"/>
<path fill="#6C7988" d="M154.244,93.498c0,0.386-0.313,0.698-0.696,0.698h-7.062c-0.391,0-0.699-0.313-0.699-0.698v-7.061
	c0-0.385,0.313-0.698,0.699-0.698h7.062c0.386,0,0.696,0.312,0.696,0.698V93.498z"/>
<path fill="#6C7988" d="M164.238,93.498c0,0.386-0.313,0.698-0.696,0.698h-7.062c-0.39,0-0.697-0.313-0.697-0.698v-7.061
	c0-0.385,0.313-0.698,0.697-0.698h7.062c0.385,0,0.696,0.312,0.696,0.698V93.498z"/>
<path fill="#6C7988" d="M174.234,93.498c0,0.386-0.313,0.698-0.698,0.698h-7.062c-0.388,0-0.697-0.313-0.697-0.698v-7.061
	c0-0.385,0.312-0.698,0.697-0.698h7.062c0.385,0,0.698,0.312,0.698,0.698V93.498z"/>
<path fill="#6C7988" d="M184.229,93.498c0,0.386-0.313,0.698-0.699,0.698h-7.061c-0.388,0-0.697-0.313-0.697-0.698v-7.061
	c0-0.385,0.313-0.698,0.697-0.698h7.061c0.388,0,0.699,0.312,0.699,0.698V93.498z"/>
<path fill="#6C7988" d="M194.225,93.498c0,0.386-0.313,0.698-0.699,0.698h-7.062c-0.385,0-0.696-0.313-0.696-0.698v-7.061
	c0-0.385,0.313-0.698,0.696-0.698h7.062c0.388,0,0.699,0.312,0.699,0.698V93.498z"/>
<path fill="#6C7988" d="M204.218,93.498c0,0.386-0.313,0.698-0.696,0.698h-7.063c-0.385,0-0.697-0.313-0.697-0.698v-7.061
	c0-0.385,0.313-0.698,0.697-0.698h7.063c0.386,0,0.696,0.312,0.696,0.698V93.498z"/>
<path fill="#6C7988" d="M95.815,103.493c0,0.386-0.313,0.698-0.698,0.698h-7.062c-0.385,0-0.697-0.313-0.697-0.698v-7.061
	c0-0.386,0.313-0.698,0.697-0.698h7.062c0.386,0,0.698,0.311,0.698,0.698V103.493z"/>
<path fill="#6C7988" d="M105.81,103.493c0,0.386-0.313,0.698-0.697,0.698h-7.061c-0.389,0-0.699-0.313-0.699-0.698v-7.061
	c0-0.386,0.312-0.698,0.699-0.698h7.061c0.385,0,0.697,0.311,0.697,0.698V103.493z"/>
<path fill="#6C7988" d="M115.804,103.493c0,0.386-0.313,0.698-0.697,0.698h-7.061c-0.388,0-0.699-0.313-0.699-0.698v-7.061
	c0-0.386,0.313-0.698,0.699-0.698h7.061c0.385,0,0.697,0.311,0.697,0.698V103.493z"/>
<path fill="#6C7988" d="M125.8,103.493c0,0.386-0.313,0.698-0.699,0.698h-7.062c-0.387,0-0.696-0.313-0.696-0.698v-7.061
	c0-0.386,0.311-0.698,0.696-0.698h7.062c0.386,0,0.699,0.311,0.699,0.698V103.493z"/>
<path fill="#6C7988" d="M135.793,103.493c0,0.386-0.313,0.698-0.697,0.698h-7.062c-0.389,0-0.697-0.313-0.697-0.698v-7.061
	c0-0.386,0.311-0.698,0.697-0.698h7.062c0.387,0,0.697,0.311,0.697,0.698V103.493z"/>
<path fill="#6C7988" d="M145.787,103.493c0,0.386-0.313,0.698-0.696,0.698h-7.062c-0.391,0-0.699-0.313-0.699-0.698v-7.061
	c0-0.386,0.313-0.698,0.699-0.698h7.062c0.386,0,0.696,0.311,0.696,0.698V103.493z"/>
<path fill="#6C7988" d="M155.783,103.493c0,0.386-0.313,0.698-0.698,0.698h-7.062c-0.39,0-0.697-0.313-0.697-0.698v-7.061
	c0-0.386,0.313-0.698,0.697-0.698h7.062c0.386,0,0.698,0.311,0.698,0.698V103.493z"/>
<path fill="#6C7988" d="M165.777,103.493c0,0.386-0.313,0.698-0.698,0.698h-7.062c-0.388,0-0.697-0.313-0.697-0.698v-7.061
	c0-0.386,0.312-0.698,0.697-0.698h7.062c0.385,0,0.698,0.311,0.698,0.698V103.493z"/>
<path fill="#6C7988" d="M175.771,103.493c0,0.386-0.313,0.698-0.698,0.698h-7.062c-0.389,0-0.697-0.313-0.697-0.698v-7.061
	c0-0.386,0.312-0.698,0.697-0.698h7.062c0.386,0,0.698,0.311,0.698,0.698V103.493z"/>
<path fill="#6C7988" d="M185.768,103.493c0,0.386-0.313,0.698-0.699,0.698h-7.06c-0.39,0-0.698-0.313-0.698-0.698v-7.061
	c0-0.386,0.312-0.698,0.698-0.698h7.06c0.388,0,0.699,0.311,0.699,0.698V103.493z"/>
<path fill="#6C7988" d="M204.218,103.493c0,0.386-0.313,0.698-0.696,0.698h-15.519c-0.386,0-0.698-0.313-0.698-0.698v-7.061
	c0-0.386,0.313-0.698,0.698-0.698h15.519c0.386,0,0.696,0.311,0.696,0.698V103.493z"/>
<path fill="#6C7988" d="M204.218,113.488c0,0.386-0.313,0.697-0.696,0.697h-23.976c-0.386,0-0.698-0.313-0.698-0.697v-7.063
	c0-0.387,0.313-0.696,0.698-0.696h23.976c0.386,0,0.696,0.313,0.696,0.696V113.488z"/>
<path fill="#6C7988" d="M87.358,113.488c0,0.386-0.313,0.697-0.698,0.697h-7.062c-0.385,0-0.697-0.313-0.697-0.697v-7.063
	c0-0.387,0.313-0.696,0.697-0.696h7.062c0.386,0,0.698,0.313,0.698,0.696V113.488z"/>
<path fill="#6C7988" d="M97.353,113.488c0,0.386-0.313,0.697-0.697,0.697h-7.061c-0.387,0-0.699-0.313-0.699-0.697v-7.063
	c0-0.387,0.313-0.696,0.699-0.696h7.061c0.385,0,0.697,0.313,0.697,0.696V113.488z"/>
<path fill="#6C7988" d="M107.347,113.488c0,0.386-0.313,0.697-0.697,0.697h-7.061c-0.388,0-0.699-0.313-0.699-0.697v-7.063
	c0-0.387,0.313-0.696,0.699-0.696h7.061c0.385,0,0.697,0.313,0.697,0.696V113.488z"/>
<path fill="#6C7988" d="M64.293,124.251c0,0.386-0.313,0.698-0.698,0.698h-7.061c-0.386,0-0.697-0.313-0.697-0.698v-7.062
	c0-0.385,0.313-0.697,0.697-0.697h7.061c0.387,0,0.698,0.311,0.698,0.697V124.251z"/>
<path fill="#6C7988" d="M74.287,124.251c0,0.386-0.313,0.698-0.696,0.698h-7.062c-0.386,0-0.699-0.313-0.699-0.698v-7.062
	c0-0.385,0.313-0.697,0.699-0.697h7.062c0.385,0,0.696,0.311,0.696,0.697V124.251z"/>
<path fill="#6C7988" d="M84.283,124.251c0,0.386-0.313,0.698-0.698,0.698h-7.061c-0.385,0-0.698-0.313-0.698-0.698v-7.062
	c0-0.385,0.313-0.697,0.698-0.697h7.061c0.385,0,0.698,0.311,0.698,0.697V124.251z"/>
<path fill="#6C7988" d="M97.353,124.251c0,0.386-0.313,0.698-0.697,0.698h-9.367c-0.385,0-0.697-0.313-0.697-0.698v-7.062
	c0-0.385,0.313-0.697,0.697-0.697h9.367c0.385,0,0.697,0.311,0.697,0.697V124.251z"/>
<path fill="#6C7988" d="M173.466,117.189c0-0.383-0.313-0.697-0.698-0.697h-7.062c-0.388,0-0.697,0.313-0.697,0.697v7.063
	c0,0.385,0.312,0.698,0.697,0.698h7.062c0.387,0,0.698-0.313,0.698-0.698V117.189z"/>
<path fill="#6C7988" d="M183.459,121.035c0-0.385-0.313-0.698-0.695-0.698h-7.063c-0.389,0-0.699,0.312-0.699,0.698v3.218
	c0,0.384,0.313,0.698,0.699,0.698h7.063c0.385,0,0.695-0.313,0.695-0.698V121.035z"/>
<path fill="#6C7988" d="M204.218,121.035c0-0.385-0.313-0.698-0.696-0.698h-7.063c-0.385,0-0.697,0.312-0.697,0.698v3.218
	c0,0.384,0.313,0.698,0.697,0.698h7.063c0.386,0,0.696-0.313,0.696-0.698V121.035z"/>
<path fill="#6C7988" d="M194.225,116.422c0-0.384-0.313-0.697-0.699-0.697h-7.062c-0.385,0-0.696,0.313-0.696,0.697v7.831
	c0,0.384,0.313,0.698,0.696,0.698h7.062c0.388,0,0.699-0.313,0.699-0.698V116.422z"/>
<path fill="#6C7988" d="M162.701,117.189c0-0.383-0.313-0.697-0.698-0.697h-9.364c-0.39,0-0.699,0.313-0.699,0.697v7.063
	c0,0.385,0.313,0.698,0.699,0.698h9.364c0.388,0,0.698-0.313,0.698-0.698V117.189z"/>
<path fill="#6C7988" d="M149.632,117.189c0-0.383-0.313-0.697-0.696-0.697h-48.577c-0.389,0-0.699,0.313-0.699,0.697v7.063
	c0,0.385,0.311,0.698,0.699,0.698h48.577c0.385,0,0.696-0.313,0.696-0.698V117.189L149.632,117.189z"/>
<path fill="#6C7988" d="M117.343,113.488c0,0.386-0.313,0.697-0.699,0.697h-7.062c-0.387,0-0.696-0.313-0.696-0.697v-7.063
	c0-0.387,0.311-0.696,0.696-0.696h7.062c0.386,0,0.699,0.313,0.699,0.696V113.488z"/>
<path fill="#6C7988" d="M127.337,113.488c0,0.386-0.313,0.697-0.699,0.697h-7.061c-0.388,0-0.697-0.313-0.697-0.697v-7.063
	c0-0.387,0.311-0.696,0.697-0.696h7.061c0.387,0,0.699,0.313,0.699,0.696V113.488z"/>
<path fill="#6C7988" d="M137.33,113.488c0,0.386-0.313,0.697-0.696,0.697h-7.062c-0.388,0-0.699-0.313-0.699-0.697v-7.063
	c0-0.387,0.312-0.696,0.699-0.696h7.062c0.386,0,0.696,0.313,0.696,0.696V113.488z"/>
<path fill="#6C7988" d="M147.325,113.488c0,0.386-0.313,0.697-0.697,0.697h-7.062c-0.39,0-0.698-0.313-0.698-0.697v-7.063
	c0-0.387,0.312-0.696,0.698-0.696h7.062c0.386,0,0.697,0.313,0.697,0.696V113.488z"/>
<path fill="#6C7988" d="M157.32,113.488c0,0.386-0.313,0.697-0.698,0.697h-7.062c-0.388,0-0.697-0.313-0.697-0.697v-7.063
	c0-0.387,0.312-0.696,0.697-0.696h7.062c0.385,0,0.698,0.313,0.698,0.696V113.488z"/>
<path fill="#6C7988" d="M167.314,113.488c0,0.386-0.313,0.697-0.697,0.697h-7.063c-0.389,0-0.697-0.313-0.697-0.697v-7.063
	c0-0.387,0.312-0.696,0.697-0.696h7.063c0.386,0,0.697,0.313,0.697,0.696V113.488z"/>
<path fill="#6C7988" d="M177.311,113.488c0,0.386-0.313,0.697-0.697,0.697h-7.062c-0.39,0-0.698-0.313-0.698-0.697v-7.063
	c0-0.387,0.312-0.696,0.698-0.696h7.062c0.386,0,0.697,0.313,0.697,0.696V113.488z"/>
<path fill="#6C7988" d="M204.218,83.504c0,0.385-0.313,0.698-0.696,0.698h-17.058c-0.385,0-0.696-0.313-0.696-0.698v-7.062
	c0-0.385,0.313-0.698,0.696-0.698h17.058c0.386,0,0.696,0.312,0.696,0.698V83.504z"/>
<path fill="#6C7988" d="M75.058,73.51c0,0.385-0.313,0.698-0.698,0.698h-7.062c-0.386,0-0.697-0.313-0.697-0.698v-3.217
	c0-0.385,0.313-0.697,0.697-0.697h7.062c0.385,0,0.698,0.312,0.698,0.698V73.51z"/>
<path fill="#6C7988" d="M85.821,73.51c0,0.385-0.313,0.698-0.699,0.698h-7.061c-0.385,0-0.697-0.313-0.697-0.698v-3.217
	c0-0.385,0.313-0.698,0.697-0.698h7.061c0.387,0,0.699,0.312,0.699,0.698V73.51z"/>
<path fill="#6C7988" d="M96.584,73.51c0,0.385-0.313,0.698-0.698,0.698h-7.062c-0.385,0-0.697-0.313-0.697-0.698v-3.217
	c0-0.385,0.313-0.698,0.697-0.698h7.062c0.385,0,0.698,0.312,0.698,0.698V73.51z"/>
<path fill="#6C7988" d="M107.347,73.51c0,0.385-0.313,0.698-0.697,0.698h-7.061c-0.388,0-0.699-0.313-0.699-0.698v-3.217
	c0-0.385,0.313-0.698,0.699-0.698h7.061c0.385,0,0.697,0.312,0.697,0.698V73.51z"/>
<path fill="#6C7988" d="M118.11,73.51c0,0.385-0.313,0.698-0.697,0.698h-7.061c-0.389,0-0.698-0.313-0.698-0.698v-3.217
	c0-0.385,0.312-0.698,0.698-0.698h7.061c0.385,0,0.697,0.312,0.697,0.698V73.51z"/>
<path fill="#6C7988" d="M128.873,73.51c0,0.385-0.313,0.698-0.696,0.698h-7.062c-0.388,0-0.699-0.313-0.699-0.698v-3.217
	c0-0.385,0.312-0.698,0.699-0.698h7.062c0.385,0,0.696,0.312,0.696,0.698V73.51z"/>
<path fill="#6C7988" d="M139.639,73.51c0,0.385-0.313,0.698-0.699,0.698h-7.06c-0.39,0-0.698-0.313-0.698-0.698v-3.217
	c0-0.385,0.312-0.698,0.698-0.698h7.06c0.388,0,0.699,0.312,0.699,0.698V73.51z"/>
<path fill="#6C7988" d="M150.4,73.51c0,0.385-0.313,0.698-0.697,0.698h-7.063c-0.388,0-0.697-0.313-0.697-0.698v-3.217
	c0-0.385,0.312-0.698,0.697-0.698h7.063c0.386,0,0.697,0.312,0.697,0.698V73.51z"/>
<path fill="#6C7988" d="M161.164,73.51c0,0.385-0.313,0.698-0.698,0.698h-7.062c-0.389,0-0.697-0.313-0.697-0.698v-3.217
	c0-0.385,0.313-0.698,0.697-0.698h7.062c0.386,0,0.698,0.312,0.698,0.698V73.51z"/>
<path fill="#6C7988" d="M171.93,73.51c0,0.385-0.313,0.698-0.699,0.698h-7.063c-0.387,0-0.695-0.313-0.695-0.698v-3.217
	c0-0.385,0.312-0.698,0.695-0.698h7.063c0.387,0,0.699,0.312,0.699,0.698V73.51z"/>
<path fill="#6C7988" d="M182.691,73.51c0,0.385-0.313,0.698-0.698,0.698h-7.062c-0.388,0-0.697-0.313-0.697-0.698v-3.217
	c0-0.385,0.312-0.698,0.697-0.698h7.062c0.385,0,0.698,0.312,0.698,0.698V73.51z"/>
<path fill="#6C7988" d="M193.454,73.51c0,0.385-0.313,0.698-0.697,0.698h-7.062c-0.387,0-0.698-0.313-0.698-0.698v-3.217
	c0-0.385,0.313-0.698,0.698-0.698h7.062c0.386,0,0.697,0.312,0.697,0.698V73.51z"/>
<path fill="#6C7988" d="M204.218,73.51c0,0.385-0.313,0.698-0.696,0.698h-7.063c-0.385,0-0.697-0.313-0.697-0.698v-3.217
	c0-0.385,0.313-0.698,0.697-0.698h7.063c0.386,0,0.696,0.312,0.696,0.698V73.51z"/>
<path opacity="0.2" fill="#6C7988" enable-background="new    " d="M219.594,191.066H38.922c-5.938,0-10.764-4.826-10.764-10.768
	V63.211c-1.691,0.662-3.734,1.688-3.734,5.704l-0.109,114.078c0,7.815,7.302,12.688,13.471,12.688h174.121
	c4.604,0,8.411-0.31,9.103-4.722C220.545,191.023,220.075,191.066,219.594,191.066z"/>
<polygon opacity="0.6" fill="#6C7988" enable-background="new    " points="9.451,8.09 250.348,8.09 226.256,49.606 32.772,49.606 
	"/>
<g>
	<g>
		<path fill="#6C7988" d="M158.513,213.89v90.406c0,2.604-2.118,4.722-4.722,4.722H33.495c-2.604,0-4.723-2.117-4.723-4.722V213.89
			c0-2.604,2.119-4.723,4.723-4.723h120.297C156.395,209.167,158.513,211.286,158.513,213.89z M31.316,304.296
			c0,1.201,0.978,2.179,2.179,2.179h120.297c1.201,0,2.178-0.978,2.178-2.179V213.89c0-1.201-0.977-2.178-2.178-2.178H33.495
			c-1.201,0-2.179,0.977-2.179,2.178V304.296z"/>
	</g>
</g>
<g>
	<path fill="#6C7988" d="M143.886,219.343v78.228H39.584v-78.228H143.886z M142.614,296.298v-75.682H40.856v75.682H142.614z"/>
</g>
<g>
	<path fill="#6C7988" d="M37.782,258.563c0,0.729-0.595,1.324-1.324,1.324c-0.73,0-1.326-0.595-1.326-1.324
		c0-0.731,0.596-1.325,1.326-1.325C37.187,257.237,37.782,257.831,37.782,258.563z M35.768,258.563c0,0.379,0.309,0.688,0.688,0.688
		c0.381,0,0.689-0.312,0.689-0.688c0-0.38-0.309-0.688-0.689-0.688C36.077,257.874,35.768,258.184,35.768,258.563z"/>
</g>
<g>
	<path fill="#6C7988" d="M154.103,258.456c0,2.303-1.872,4.175-4.175,4.175c-2.303,0-4.176-1.872-4.176-4.175
		c0-2.302,1.874-4.176,4.176-4.176C152.231,254.28,154.103,256.154,154.103,258.456z M146.468,258.456
		c0,1.908,1.553,3.461,3.462,3.461c1.905,0,3.46-1.553,3.46-3.461s-1.555-3.461-3.46-3.461
		C148.021,254.995,146.468,256.547,146.468,258.456z"/>
</g>
<g>
	<path fill="#6C7988" d="M151.518,257.339v2.234c0,0.262-0.212,0.473-0.473,0.473h-2.235c-0.261,0-0.474-0.211-0.474-0.473v-2.234
		c0-0.26,0.213-0.473,0.474-0.473h2.235C151.306,256.866,151.518,257.079,151.518,257.339z M150.881,259.411v-1.908h-1.907v1.908
		H150.881z"/>
</g>
<g opacity="0.2" enable-background="new    ">
	<path fill="#6C7988" d="M29.09,302.388l-0.002-86.225h0.271c-1.904,0-3.449,1.545-3.449,3.449v88.251
		c0,2.386,2.066,4.97,5.764,4.97h114.805c1.904,0,3.449-1.91,3.449-3.815v-1.907H33.812C31.208,307.11,29.09,304.991,29.09,302.388
		L29.09,302.388z"/>
</g>
<g>
	<path fill="#6C7988" d="M226.162,290.424h-39.695v-67.53c0-0.972,0.559-1.526,1.527-1.526h36.643c0.971,0,1.527,0.557,1.527,1.526
		L226.162,290.424L226.162,290.424z M187.169,289.719h38.287v-66.825c0-0.584-0.238-0.822-0.822-0.822h-36.643
		c-0.584,0-0.82,0.239-0.82,0.822L187.169,289.719L187.169,289.719z"/>
</g>
<g>
	<path fill="#6C7988" d="M206.373,299.976c-2.363,0-4.285-1.924-4.285-4.286c0-2.361,1.922-4.284,4.285-4.284
		s4.287,1.923,4.287,4.284C210.66,298.054,208.736,299.976,206.373,299.976z M206.373,292.106c-1.975,0-3.58,1.606-3.58,3.583
		c0,1.975,1.605,3.583,3.58,3.583c1.977,0,3.582-1.608,3.582-3.583C209.955,293.713,208.349,292.106,206.373,292.106z"/>
</g>
<g>
	<path fill="#6C7988" d="M207.068,297.472h-1.51c-0.555,0-1.006-0.453-1.006-1.009v-1.508c0-0.56,0.451-1.01,1.006-1.01h1.51
		c0.557,0,1.006,0.453,1.006,1.01v1.508C208.076,297.019,207.623,297.472,207.068,297.472z M205.558,294.651
		c-0.166,0-0.303,0.138-0.303,0.304v1.508c0,0.171,0.137,0.306,0.303,0.306h1.51c0.168,0,0.303-0.138,0.303-0.306v-1.508
		c0-0.166-0.135-0.304-0.303-0.304H205.558z"/>
</g>
<circle fill="#6C7988" cx="206.138" cy="214.145" r="0.88"/>
<circle fill="#6C7988" cx="200.433" cy="217.717" r="0.578"/>
<path fill="#6C7988" d="M209.417,217.139c-0.275,0-6.404,0-6.598,0c-0.34,0-0.615,0.247-0.615,0.587
	c0,0.342,0.275,0.587,0.615,0.587c0.111,0,6.439,0,6.598,0c0.34,0,0.615-0.245,0.615-0.587
	C210.033,217.386,209.757,217.139,209.417,217.139z"/>
<g>
	<path fill="#6C7988" d="M203.376,223.658h-0.15v-0.99l-0.299,0.109v-0.134l0.426-0.16h0.023V223.658L203.376,223.658z"/>
	<path fill="#6C7988" d="M204.544,223.158c0,0.174-0.031,0.303-0.092,0.389c-0.057,0.084-0.148,0.127-0.275,0.127
		c-0.125,0-0.217-0.04-0.277-0.125c-0.059-0.081-0.092-0.204-0.094-0.368v-0.198c0-0.172,0.031-0.3,0.09-0.382
		c0.059-0.084,0.152-0.126,0.279-0.126c0.125,0,0.217,0.041,0.277,0.121c0.061,0.078,0.088,0.203,0.092,0.373V223.158
		L204.544,223.158z M204.396,222.955c0-0.125-0.018-0.218-0.053-0.273c-0.035-0.059-0.092-0.086-0.168-0.086
		s-0.131,0.027-0.166,0.085s-0.055,0.146-0.055,0.266v0.237c0,0.126,0.02,0.22,0.055,0.279c0.037,0.062,0.092,0.091,0.168,0.091
		c0.072,0,0.127-0.028,0.162-0.085c0.035-0.059,0.053-0.146,0.055-0.27L204.396,222.955L204.396,222.955z"/>
	<path fill="#6C7988" d="M204.744,223.58c0-0.024,0.01-0.049,0.023-0.063c0.016-0.02,0.037-0.023,0.07-0.023
		c0.025,0,0.053,0.008,0.064,0.023c0.02,0.018,0.023,0.038,0.023,0.063c0,0.023-0.006,0.045-0.023,0.063
		c-0.016,0.017-0.039,0.022-0.064,0.022c-0.033,0-0.057-0.008-0.07-0.022C204.753,223.623,204.744,223.604,204.744,223.58z
		 M204.746,222.869c0-0.022,0.01-0.047,0.021-0.063c0.018-0.018,0.039-0.023,0.07-0.023c0.025,0,0.053,0.01,0.066,0.023
		c0.02,0.02,0.023,0.04,0.023,0.063c0,0.024-0.008,0.047-0.023,0.063c-0.014,0.017-0.041,0.024-0.066,0.024
		c-0.031,0-0.057-0.008-0.07-0.024S204.746,222.895,204.746,222.869z"/>
	<path fill="#6C7988" d="M205.349,223h0.111c0.068-0.002,0.125-0.021,0.164-0.058c0.039-0.034,0.061-0.084,0.061-0.146
		c0-0.137-0.068-0.204-0.205-0.204c-0.063,0-0.115,0.018-0.154,0.055s-0.057,0.085-0.057,0.146h-0.146
		c0-0.094,0.031-0.17,0.104-0.229c0.066-0.063,0.152-0.093,0.258-0.093c0.111,0,0.197,0.028,0.26,0.088
		c0.064,0.06,0.094,0.14,0.094,0.243c0,0.051-0.018,0.1-0.049,0.146c-0.033,0.047-0.078,0.082-0.135,0.105
		c0.064,0.021,0.113,0.054,0.148,0.102c0.035,0.049,0.053,0.104,0.053,0.174c0,0.104-0.035,0.188-0.104,0.25
		c-0.068,0.063-0.158,0.092-0.271,0.092c-0.109,0-0.199-0.028-0.268-0.09c-0.068-0.059-0.104-0.138-0.104-0.233h0.148
		c0,0.063,0.02,0.11,0.061,0.147c0.041,0.035,0.094,0.057,0.162,0.057c0.072,0,0.127-0.021,0.164-0.059
		c0.039-0.035,0.059-0.091,0.059-0.16c0-0.066-0.021-0.119-0.063-0.155c-0.043-0.036-0.105-0.058-0.184-0.058h-0.109L205.349,223
		L205.349,223z"/>
	<path fill="#6C7988" d="M206.789,223.158c0,0.174-0.027,0.303-0.088,0.389c-0.061,0.084-0.152,0.127-0.279,0.127
		c-0.123,0-0.217-0.04-0.275-0.125c-0.059-0.081-0.09-0.204-0.094-0.368v-0.198c0-0.172,0.027-0.3,0.09-0.382
		c0.059-0.084,0.152-0.126,0.279-0.126c0.125,0,0.217,0.041,0.275,0.121c0.061,0.078,0.092,0.203,0.092,0.373V223.158
		L206.789,223.158z M206.64,222.955c0-0.125-0.018-0.218-0.053-0.273c-0.035-0.059-0.092-0.086-0.168-0.086
		s-0.133,0.027-0.168,0.085s-0.053,0.146-0.055,0.266v0.237c0,0.126,0.02,0.22,0.057,0.279c0.035,0.062,0.092,0.091,0.166,0.091
		s0.129-0.028,0.164-0.085c0.035-0.059,0.053-0.146,0.055-0.27L206.64,222.955L206.64,222.955z"/>
	<path fill="#6C7988" d="M208.07,223.351h-0.49l-0.111,0.308h-0.156l0.445-1.17h0.137l0.445,1.17h-0.156L208.07,223.351z
		 M207.626,223.226h0.398l-0.201-0.548L207.626,223.226z"/>
	<path fill="#6C7988" d="M208.697,222.488l0.381,0.953l0.383-0.953h0.201v1.17h-0.154v-0.455l0.016-0.492l-0.385,0.947h-0.115
		l-0.385-0.945l0.016,0.49v0.455h-0.15v-1.17H208.697z"/>
</g>
<path fill="#6C7988" d="M228.98,228.426v-12.649c0-3.782-3.074-6.858-6.857-6.858H190.74c-3.779,0-6.857,3.076-6.857,6.858v5.837
	c-0.398,0.059-0.705,0.397-0.705,0.811v3.76c0,0.413,0.307,0.753,0.705,0.813v1.196c-0.398,0.06-0.705,0.397-0.705,0.812v5.401
	c0,0.413,0.307,0.753,0.705,0.812v1.197c-0.398,0.06-0.705,0.398-0.705,0.813v5.4c0,0.414,0.307,0.754,0.705,0.812v52.347
	c0,3.781,3.078,6.857,6.857,6.857h31.381c3.783,0,6.859-3.075,6.859-6.857v-60.332c0.398-0.059,0.705-0.396,0.705-0.811v-5.403
	C229.685,228.824,229.378,228.483,228.98,228.426z M228.042,295.779c0,3.266-2.656,5.92-5.922,5.92H190.74
	c-3.264,0-5.918-2.656-5.918-5.92v-53.154v-5.401v-2.82v-5.401v-2.817v-3.758v-6.647c0-3.265,2.654-5.919,5.918-5.919h31.381
	c3.266,0,5.922,2.655,5.922,5.919v13.459v5.403V295.779z"/>
<g>
	<rect x="188.111" y="223.441" fill="#6C7988" width="0.469" height="0.273"/>
	<rect x="188.816" y="223.246" fill="#6C7988" width="0.469" height="0.472"/>
	<rect x="190.929" y="222.541" fill="#6C7988" width="0.469" height="1.174"/>
	<rect x="189.521" y="223.012" fill="#6C7988" width="0.469" height="0.703"/>
	<rect x="190.224" y="222.776" fill="#6C7988" width="0.471" height="0.938"/>
</g>
<polygon fill="#6C7988" points="221.464,222.541 221.464,223.715 224.048,223.715 224.048,223.48 224.519,223.48 224.519,222.776 
	224.048,222.776 224.048,222.541 "/>
<path opacity="0.2" fill="#6C7988" enable-background="new    " d="M222.121,302.639H190.74c-3.779,0-6.857-3.075-6.857-6.859
	v-80.003c0-1.304,0.365-2.522,1-3.562c-2.262,1.123-3.113,2.281-3.113,4.971v80.002c0,3.783,3.076,7.328,6.859,7.328h31.381
	c2.479,0,3.947-0.615,5.152-2.592C224.246,302.379,223.212,302.639,222.121,302.639z"/>
</svg>
