<?xml version="1.0" encoding="utf-8"?>
<!-- Generator: Adobe Illustrator 15.0.0, SVG Export Plug-In . SVG Version: 6.00 Build 0)  -->
<!DOCTYPE svg PUBLIC "-//W3C//DTD SVG 1.1//EN" "http://www.w3.org/Graphics/SVG/1.1/DTD/svg11.dtd">
<svg version="1.1" id="keyboard" xmlns="http://www.w3.org/2000/svg" xmlns:xlink="http://www.w3.org/1999/xlink" x="0px" y="0px"
	 width="196.5px" height="191px" viewBox="0 0 196.5 191" enable-background="new 0 0 196.5 191" xml:space="preserve">
<g>
	<g>
		<path fill="#6C7988" d="M186.556,135.354l-51.312,51.313c-1.465,1.463-3.849,1.463-5.313,0L5.159,61.893
			c-1.464-1.464-1.463-3.847,0-5.311L56.47,5.271c1.463-1.463,3.847-1.464,5.311,0l124.774,124.772
			C188.018,131.508,188.019,133.891,186.556,135.354z M6.32,57.743c-0.825,0.824-0.823,2.163,0,2.986l124.774,124.773
			c0.823,0.826,2.161,0.826,2.985,0l51.313-51.312c0.823-0.823,0.823-2.162,0-2.985L60.619,6.432c-0.824-0.824-2.165-0.823-2.987,0
			L6.32,57.743z"/>
	</g>
</g>
<g>
	<path fill="#6C7988" d="M93.981,130.361l-6.126,6.126c-0.313,0.313-0.819,0.313-1.133,0l-41.55-41.55
		c-0.312-0.312-0.314-0.82,0-1.133l6.126-6.126c0.312-0.312,0.821-0.313,1.134,0l41.552,41.552
		C94.295,129.541,94.294,130.049,93.981,130.361z M51.852,88.258l-6.098,6.127l41.551,41.523l6.083-6.113L51.852,88.258z"/>
</g>
<g>
	<path fill="#6C7988" d="M24.004,60.383l-6.126,6.126c-0.313,0.313-0.82,0.313-1.133,0l-6.125-6.125
		c-0.312-0.312-0.314-0.819,0-1.133l6.126-6.126c0.312-0.312,0.82-0.313,1.133,0l6.126,6.126
		C24.317,59.563,24.316,60.071,24.004,60.383z M17.298,53.706L11.2,59.833l6.129,6.099l6.083-6.112L17.298,53.706z"/>
</g>
<g>
	<path fill="#6C7988" d="M42.879,62.996l-6.129,6.129c-0.311,0.311-0.819,0.311-1.131-0.001L18.75,52.254
		c-0.312-0.312-0.314-0.819-0.002-1.132l6.129-6.129c0.31-0.31,0.819-0.313,1.133,0l16.868,16.869
		C43.191,62.174,43.19,62.685,42.879,62.996z M25.429,45.575l-6.1,6.128L36.2,68.543l6.083-6.112L25.429,45.575L25.429,45.575z"/>
</g>
<g>
	<path fill="#6C7988" d="M32.135,68.514l-6.126,6.126c-0.313,0.312-0.82,0.313-1.133,0l-6.126-6.126
		c-0.312-0.312-0.313-0.819,0-1.133l6.126-6.126c0.311-0.312,0.821-0.313,1.133,0l6.126,6.126
		C32.448,67.692,32.448,68.202,32.135,68.514z M25.429,61.834l-6.098,6.127l6.128,6.098l6.083-6.112L25.429,61.834z"/>
</g>
<g>
	<path fill="#6C7988" d="M51.011,71.126l-6.129,6.129c-0.311,0.311-0.818,0.311-1.131-0.001l-6.127-6.127
		c-0.312-0.312-0.313-0.819-0.001-1.131l6.129-6.129c0.31-0.31,0.82-0.313,1.132,0l6.127,6.127
		C51.322,70.306,51.323,70.814,51.011,71.126z M44.303,64.449l-6.099,6.129l6.128,6.098l6.083-6.112L44.303,64.449L44.303,64.449z"
		/>
</g>
<g>
	<path fill="#6C7988" d="M68.432,88.547l-6.129,6.129c-0.311,0.312-0.823,0.307-1.141-0.011l-6.398-6.398
		c-0.317-0.317-0.323-0.828-0.011-1.14l6.129-6.129c0.31-0.31,0.824-0.308,1.142,0.009l6.398,6.398
		C68.74,87.724,68.744,88.236,68.432,88.547z M61.443,81.589l-6.109,6.119l6.408,6.378l6.093-6.102L61.443,81.589L61.443,81.589z"/>
</g>
<g>
	<path fill="#6C7988" d="M85.273,105.39l-6.129,6.129c-0.311,0.312-0.822,0.308-1.141-0.011l-6.398-6.397
		c-0.317-0.317-0.322-0.827-0.01-1.14l6.129-6.131c0.31-0.309,0.824-0.307,1.141,0.01l6.398,6.396
		C85.582,104.565,85.584,105.078,85.273,105.39z M78.285,98.431l-6.108,6.118l6.408,6.377l6.092-6.102L78.285,98.431L78.285,98.431z
		"/>
</g>
<g>
	<path fill="#6C7988" d="M93.693,113.809l-6.129,6.13c-0.311,0.312-0.823,0.308-1.14-0.011l-6.399-6.398
		c-0.316-0.316-0.322-0.826-0.01-1.14l6.129-6.13c0.31-0.311,0.825-0.309,1.141,0.009l6.399,6.399
		C94,112.984,94.004,113.498,93.693,113.809z M86.706,106.852l-6.108,6.119l6.408,6.378l6.092-6.104L86.706,106.852L86.706,106.852z
		"/>
</g>
<g>
	<path fill="#6C7988" d="M102.113,122.229l-6.129,6.129c-0.311,0.312-0.824,0.308-1.14-0.01l-6.398-6.397
		c-0.318-0.318-0.322-0.828-0.01-1.141l6.129-6.129c0.31-0.311,0.823-0.311,1.141,0.009l6.399,6.397
		C102.422,121.406,102.426,121.918,102.113,122.229z M95.125,115.271l-6.108,6.119l6.408,6.378l6.092-6.103L95.125,115.271
		L95.125,115.271z"/>
</g>
<g>
	<path fill="#6C7988" d="M110.535,130.65l-6.129,6.131c-0.311,0.311-0.824,0.305-1.141-0.013l-6.398-6.397
		c-0.316-0.316-0.322-0.828-0.01-1.141l6.129-6.13c0.311-0.31,0.823-0.31,1.141,0.009l6.399,6.398
		C110.843,129.826,110.847,130.338,110.535,130.65z M103.545,123.691l-6.107,6.12l6.408,6.377l6.092-6.103L103.545,123.691
		L103.545,123.691z"/>
</g>
<g>
	<path fill="#6C7988" d="M118.957,139.072l-6.129,6.129c-0.312,0.311-0.824,0.307-1.141-0.011l-6.4-6.399
		c-0.315-0.316-0.322-0.826-0.01-1.14l6.129-6.129c0.311-0.31,0.823-0.31,1.141,0.009l6.4,6.398
		C119.264,138.248,119.268,138.762,118.957,139.072z M111.965,132.112l-6.107,6.12l6.408,6.377l6.092-6.104L111.965,132.112
		L111.965,132.112z"/>
</g>
<g>
	<path fill="#6C7988" d="M127.375,147.492l-6.129,6.129c-0.311,0.311-0.822,0.309-1.14-0.011l-6.397-6.397
		c-0.316-0.316-0.321-0.826-0.01-1.139l6.129-6.13c0.311-0.312,0.824-0.309,1.142,0.009l6.397,6.397
		C127.685,146.668,127.688,147.182,127.375,147.492z M120.387,140.533l-6.108,6.12l6.408,6.378l6.092-6.105L120.387,140.533
		L120.387,140.533z"/>
</g>
<g>
	<path fill="#6C7988" d="M89.337,93.775l-6.126,6.126c-0.313,0.313-0.825,0.312-1.143-0.007l-6.398-6.398
		c-0.318-0.318-0.322-0.829-0.008-1.143l6.126-6.126c0.312-0.312,0.824-0.309,1.141,0.008l6.398,6.399
		C89.646,92.952,89.649,93.462,89.337,93.775z M82.35,86.816l-6.108,6.116l6.407,6.38l6.093-6.103L82.35,86.816z"/>
</g>
<g>
	<path fill="#6C7988" d="M97.757,102.195l-6.126,6.127c-0.313,0.313-0.826,0.309-1.143-0.008l-6.398-6.396
		c-0.317-0.317-0.322-0.83-0.007-1.144l6.126-6.127c0.311-0.311,0.824-0.308,1.141,0.009l6.399,6.399
		C98.065,101.371,98.069,101.883,97.757,102.195z M90.77,95.236l-6.105,6.118l6.407,6.38l6.092-6.104L90.77,95.236z"/>
</g>
<g>
	<path fill="#6C7988" d="M123.02,127.457l-6.126,6.127c-0.313,0.313-0.827,0.308-1.142-0.008l-6.399-6.397
		c-0.317-0.317-0.321-0.828-0.007-1.144l6.126-6.125c0.312-0.313,0.823-0.31,1.141,0.008l6.398,6.398
		C123.328,126.633,123.332,127.146,123.02,127.457z M116.031,120.498l-6.107,6.117l6.408,6.379l6.092-6.104L116.031,120.498z"/>
</g>
<g>
	<path fill="#6C7988" d="M131.44,135.879l-6.126,6.127c-0.313,0.313-0.824,0.309-1.143-0.008l-6.399-6.398
		c-0.315-0.316-0.321-0.828-0.007-1.143l6.126-6.127c0.312-0.312,0.823-0.31,1.142,0.008l6.398,6.4
		C131.748,135.055,131.752,135.565,131.44,135.879z M124.453,128.918l-6.106,6.119l6.405,6.377l6.095-6.103L124.453,128.918z"/>
</g>
<g>
	<path fill="#6C7988" d="M139.86,144.299l-6.126,6.127c-0.313,0.313-0.824,0.309-1.142-0.008l-6.398-6.398
		c-0.317-0.316-0.321-0.828-0.008-1.143l6.126-6.125c0.313-0.313,0.825-0.31,1.143,0.008l6.397,6.398
		C140.169,143.475,140.173,143.985,139.86,144.299z M132.873,137.34l-6.105,6.119l6.406,6.377l6.093-6.103L132.873,137.34z"/>
</g>
<g>
	<path fill="#6C7988" d="M111.695,100.451l-6.128,6.129c-0.312,0.313-0.823,0.309-1.142-0.011l-6.397-6.396
		c-0.317-0.317-0.322-0.827-0.009-1.141l6.127-6.127c0.313-0.313,0.824-0.309,1.141,0.009l6.397,6.397
		C112.004,99.627,112.008,100.14,111.695,100.451z M104.707,93.495l-6.106,6.119l6.405,6.377l6.094-6.102L104.707,93.495
		L104.707,93.495z"/>
</g>
<g>
	<path fill="#6C7988" d="M128.537,117.293l-6.127,6.127c-0.313,0.313-0.824,0.31-1.142-0.008l-6.399-6.399
		c-0.315-0.315-0.322-0.827-0.009-1.142l6.128-6.127c0.313-0.313,0.824-0.31,1.141,0.008l6.399,6.399
		C128.846,116.469,128.85,116.981,128.537,117.293z M121.547,110.334l-6.105,6.119l6.408,6.379l6.091-6.104L121.547,110.334
		L121.547,110.334z"/>
</g>
<g>
	<path fill="#6C7988" d="M136.959,125.715l-6.129,6.127c-0.312,0.313-0.824,0.309-1.141-0.01l-6.398-6.397
		c-0.316-0.315-0.321-0.828-0.008-1.142l6.127-6.127c0.312-0.313,0.823-0.31,1.141,0.008l6.398,6.398
		C137.268,124.891,137.271,125.402,136.959,125.715z M129.969,118.756l-6.107,6.117l6.408,6.379l6.091-6.103L129.969,118.756
		L129.969,118.756z"/>
</g>
<g>
	<path fill="#6C7988" d="M145.378,134.135l-6.128,6.129c-0.312,0.313-0.823,0.307-1.141-0.01l-6.398-6.398
		c-0.315-0.316-0.322-0.83-0.01-1.143l6.129-6.127c0.312-0.313,0.823-0.309,1.142,0.01l6.398,6.398
		C145.687,133.311,145.69,133.824,145.378,134.135z M138.39,127.176l-6.106,6.119l6.407,6.379l6.092-6.104L138.39,127.176
		L138.39,127.176z"/>
</g>
<g>
	<path fill="#6C7988" d="M162.22,150.975l-6.129,6.129c-0.313,0.313-0.822,0.309-1.141-0.01l-6.396-6.396
		c-0.317-0.318-0.322-0.828-0.01-1.143l6.127-6.127c0.313-0.313,0.824-0.309,1.143,0.01l6.396,6.396
		C162.527,150.151,162.53,150.664,162.22,150.975z M155.23,144.02l-6.106,6.117l6.405,6.377l6.093-6.102L155.23,144.02
		L155.23,144.02z"/>
</g>
<g>
	<path fill="#6C7988" d="M61.172,49.93l-6.127,6.127c-0.312,0.313-0.824,0.308-1.142-0.009l-6.397-6.398
		c-0.318-0.318-0.324-0.828-0.01-1.142l6.127-6.127c0.312-0.312,0.825-0.308,1.142,0.01l6.398,6.398
		C61.48,49.105,61.484,49.618,61.172,49.93z M54.185,42.972l-6.108,6.117l6.408,6.378l6.092-6.103L54.185,42.972L54.185,42.972z"/>
</g>
<g>
	<path fill="#6C7988" d="M52.751,41.508l-6.127,6.127c-0.313,0.313-0.824,0.308-1.141-0.009L34.438,36.583
		c-0.317-0.317-0.323-0.828-0.01-1.141l6.128-6.127c0.312-0.312,0.825-0.308,1.142,0.009l11.044,11.043
		C53.06,40.684,53.063,41.197,52.751,41.508z M41.118,29.905l-6.107,6.116l11.053,11.025l6.092-6.102L41.118,29.905z"/>
</g>
<g>
	<path fill="#6C7988" d="M46.652,51.09l-6.126,6.126c-0.313,0.313-0.825,0.311-1.143-0.007L26.598,44.423
		c-0.317-0.317-0.321-0.828-0.007-1.143l6.126-6.126c0.312-0.313,0.825-0.308,1.142,0.01l12.786,12.786
		C46.961,50.268,46.964,50.778,46.652,51.09z M33.277,37.745l-6.107,6.117l12.795,12.768l6.092-6.104L33.277,37.745z"/>
</g>
<g>
	<path fill="#6C7988" d="M69.593,58.35l-6.127,6.127c-0.312,0.312-0.824,0.308-1.141-0.009l-6.398-6.398
		c-0.317-0.317-0.323-0.828-0.01-1.142l6.127-6.127c0.312-0.312,0.825-0.308,1.142,0.009l6.398,6.398
		C69.9,57.525,69.905,58.038,69.593,58.35z M62.604,51.392l-6.107,6.118l6.408,6.379l6.092-6.103L62.604,51.392L62.604,51.392z"/>
</g>
<g>
	<path fill="#6C7988" d="M78.014,66.771l-6.127,6.127c-0.312,0.312-0.824,0.307-1.141-0.009l-6.399-6.399
		c-0.317-0.317-0.323-0.827-0.009-1.141l6.127-6.127c0.312-0.312,0.824-0.308,1.141,0.009l6.399,6.399
		C78.322,65.946,78.327,66.458,78.014,66.771z M71.024,59.812l-6.106,6.119l6.408,6.378l6.091-6.104L71.024,59.812L71.024,59.812z"
		/>
</g>
<g>
	<path fill="#6C7988" d="M55.656,60.092l-6.126,6.126c-0.313,0.313-0.827,0.309-1.145-0.009l-6.397-6.397
		c-0.317-0.317-0.322-0.829-0.008-1.144l6.126-6.126c0.312-0.312,0.824-0.308,1.142,0.009l6.397,6.397
		C55.962,59.268,55.968,59.781,55.656,60.092z M48.667,53.133l-6.106,6.117l6.406,6.378l6.094-6.102L48.667,53.133z"/>
</g>
<g>
	<path fill="#6C7988" d="M64.076,68.514L57.95,74.64c-0.313,0.313-0.826,0.31-1.143-0.008l-6.398-6.397
		c-0.317-0.317-0.321-0.829-0.007-1.143l6.126-6.126c0.312-0.312,0.824-0.309,1.141,0.009l6.398,6.397
		C64.383,67.688,64.388,68.202,64.076,68.514z M57.087,61.555l-6.106,6.118l6.406,6.378l6.093-6.103L57.087,61.555z"/>
</g>
<g>
	<path fill="#6C7988" d="M72.497,76.935l-6.127,6.126c-0.313,0.313-0.825,0.31-1.142-0.007l-6.399-6.399
		c-0.317-0.316-0.322-0.828-0.007-1.143l6.126-6.126c0.312-0.312,0.824-0.308,1.141,0.008l6.399,6.399
		C72.805,76.109,72.809,76.623,72.497,76.935z M65.507,69.975l-6.106,6.118l6.407,6.379l6.092-6.104L65.507,69.975z"/>
</g>
<g>
	<path fill="#6C7988" d="M86.435,75.191l-6.127,6.127c-0.312,0.312-0.823,0.308-1.141-0.009l-6.398-6.398
		c-0.317-0.317-0.323-0.828-0.01-1.142l6.127-6.127c0.312-0.312,0.825-0.308,1.142,0.009l6.398,6.398
		C86.742,74.367,86.747,74.878,86.435,75.191z M79.444,68.232l-6.106,6.117l6.408,6.378l6.091-6.103L79.444,68.232z"/>
</g>
<g>
	<path fill="#6C7988" d="M94.855,83.613l-6.127,6.127c-0.312,0.312-0.824,0.308-1.141-0.01l-6.397-6.397
		c-0.318-0.317-0.325-0.828-0.011-1.142l6.127-6.127c0.312-0.312,0.825-0.308,1.142,0.01l6.397,6.397
		C95.163,82.788,95.167,83.3,94.855,83.613z M87.867,76.653l-6.108,6.117l6.408,6.378l6.092-6.102L87.867,76.653L87.867,76.653z"/>
</g>
<g>
	<path fill="#6C7988" d="M97.758,70.835l-6.128,6.127c-0.312,0.312-0.824,0.309-1.142-0.008l-6.399-6.399
		c-0.317-0.317-0.322-0.828-0.008-1.142l6.128-6.127c0.311-0.312,0.823-0.307,1.14,0.01l6.399,6.399
		C98.065,70.013,98.072,70.522,97.758,70.835z M90.77,63.875l-6.107,6.119l6.408,6.378l6.091-6.104L90.77,63.875L90.77,63.875z"/>
</g>
<g>
	<path fill="#6C7988" d="M106.18,79.255l-6.128,6.127c-0.312,0.312-0.824,0.309-1.142-0.008l-6.398-6.398
		c-0.317-0.317-0.323-0.829-0.009-1.142l6.127-6.128c0.311-0.311,0.824-0.307,1.141,0.011l6.397,6.398
		C106.485,78.433,106.492,78.943,106.18,79.255z M99.19,72.296l-6.108,6.119l6.408,6.378l6.092-6.103L99.19,72.296L99.19,72.296z"/>
</g>
<g>
	<path fill="#6C7988" d="M114.6,87.676l-6.127,6.128c-0.313,0.312-0.825,0.309-1.143-0.008l-6.397-6.399
		c-0.315-0.316-0.322-0.828-0.009-1.141l6.129-6.128c0.311-0.311,0.822-0.307,1.14,0.01l6.397,6.398
		C114.906,86.854,114.912,87.364,114.6,87.676z M107.61,80.717l-6.106,6.118l6.406,6.377l6.094-6.102L107.61,80.717L107.61,80.717z"
		/>
</g>
<g>
	<path fill="#6C7988" d="M123.02,96.097l-6.127,6.128c-0.313,0.313-0.825,0.309-1.143-0.01l-6.397-6.396
		c-0.317-0.317-0.321-0.828-0.008-1.141l6.128-6.128c0.311-0.311,0.822-0.307,1.14,0.01l6.398,6.398
		C123.328,95.273,123.332,95.785,123.02,96.097z M116.033,89.14l-6.107,6.118l6.406,6.377l6.092-6.103L116.033,89.14L116.033,89.14z
		"/>
</g>
<g>
	<path fill="#6C7988" d="M131.44,104.518l-6.127,6.127c-0.312,0.313-0.823,0.311-1.142-0.008l-6.399-6.398
		c-0.317-0.316-0.321-0.828-0.008-1.142l6.128-6.128c0.311-0.311,0.822-0.309,1.141,0.01l6.398,6.398
		C131.748,103.695,131.752,104.205,131.44,104.518z M124.453,97.559l-6.106,6.117l6.407,6.38l6.093-6.104L124.453,97.559
		L124.453,97.559z"/>
</g>
<g>
	<path fill="#6C7988" d="M139.861,112.938l-6.128,6.128c-0.312,0.312-0.823,0.31-1.142-0.008l-6.398-6.397
		c-0.316-0.316-0.322-0.828-0.008-1.143l6.128-6.128c0.312-0.312,0.823-0.308,1.14,0.01l6.398,6.397
		C140.169,112.115,140.173,112.625,139.861,112.938z M132.873,105.979l-6.106,6.117l6.407,6.379l6.093-6.104L132.873,105.979
		L132.873,105.979z"/>
</g>
<g>
	<path fill="#6C7988" d="M148.284,121.359l-6.127,6.128c-0.313,0.312-0.826,0.308-1.144-0.01l-6.398-6.397
		c-0.316-0.316-0.322-0.828-0.009-1.143l6.128-6.128c0.312-0.312,0.822-0.308,1.14,0.01l6.399,6.399
		C148.589,120.535,148.597,121.047,148.284,121.359z M141.292,114.399l-6.105,6.118l6.408,6.378l6.091-6.104L141.292,114.399
		L141.292,114.399z"/>
</g>
<g>
	<path fill="#6C7988" d="M156.704,129.779l-6.127,6.129c-0.313,0.311-0.826,0.309-1.144-0.011l-6.397-6.397
		c-0.315-0.316-0.322-0.828-0.009-1.143l6.128-6.128c0.311-0.312,0.823-0.308,1.139,0.011l6.399,6.397
		C157.011,128.957,157.017,129.467,156.704,129.779z M149.714,122.819l-6.108,6.118l6.408,6.378l6.094-6.101L149.714,122.819
		L149.714,122.819z"/>
</g>
<g>
	<path fill="#6C7988" d="M170.06,143.135l-6.128,6.129c-0.312,0.311-0.824,0.309-1.142-0.01l-11.332-11.332
		c-0.317-0.318-0.322-0.828-0.01-1.144l6.129-6.127c0.311-0.312,0.821-0.307,1.139,0.011l11.334,11.332
		C170.366,142.312,170.372,142.824,170.06,143.135z M158.136,131.242l-6.107,6.117l11.344,11.314l6.092-6.102L158.136,131.242
		L158.136,131.242z"/>
</g>
<g>
	<path fill="#6C7988" d="M55.656,28.731l-6.127,6.128c-0.312,0.312-0.825,0.309-1.142-0.009l-6.107-6.107
		c-0.317-0.317-0.323-0.829-0.009-1.142l6.128-6.128c0.311-0.311,0.823-0.307,1.141,0.011l6.107,6.107
		C55.962,27.91,55.968,28.419,55.656,28.731z M48.958,22.063l-6.108,6.117l6.118,6.088l6.093-6.102L48.958,22.063L48.958,22.063z"/>
</g>
<g>
	<path fill="#6C7988" d="M64.076,37.152l-6.127,6.128c-0.312,0.312-0.825,0.308-1.142-0.008l-6.398-6.398
		c-0.317-0.317-0.323-0.829-0.009-1.143l6.128-6.127c0.311-0.311,0.823-0.307,1.14,0.011l6.398,6.398
		C64.382,36.33,64.389,36.839,64.076,37.152z M57.087,30.194l-6.108,6.118l6.408,6.378l6.092-6.103L57.087,30.194L57.087,30.194z"/>
</g>
<g>
	<path fill="#6C7988" d="M72.498,45.574l-6.127,6.128c-0.312,0.312-0.825,0.309-1.142-0.008l-6.398-6.398
		c-0.318-0.318-0.323-0.829-0.009-1.142l6.128-6.128c0.311-0.311,0.823-0.307,1.141,0.011l6.397,6.398
		C72.805,44.75,72.81,45.262,72.498,45.574z M65.508,38.615L59.4,44.732l6.408,6.378l6.093-6.102L65.508,38.615L65.508,38.615z"/>
</g>
<g>
	<path fill="#6C7988" d="M80.917,53.995l-6.127,6.128c-0.312,0.312-0.825,0.308-1.142-0.008l-6.398-6.398
		c-0.318-0.318-0.323-0.829-0.009-1.142l6.128-6.128c0.311-0.312,0.823-0.307,1.141,0.011l6.398,6.398
		C81.225,53.17,81.229,53.682,80.917,53.995z M73.929,47.036l-6.107,6.118l6.408,6.378l6.092-6.103L73.929,47.036L73.929,47.036z"/>
</g>
<g>
	<path fill="#6C7988" d="M89.338,62.416l-6.128,6.128c-0.312,0.312-0.826,0.308-1.142-0.008l-6.399-6.399
		c-0.317-0.317-0.322-0.829-0.009-1.142l6.128-6.127c0.311-0.312,0.823-0.307,1.14,0.011l6.399,6.398
		C89.645,61.591,89.651,62.103,89.338,62.416z M82.351,55.457l-6.107,6.119l6.408,6.378l6.091-6.103L82.351,55.457L82.351,55.457z"
		/>
</g>
<g>
	<path fill="#6C7988" d="M60.882,24.086L57.95,27.02c-0.311,0.311-0.825,0.309-1.142-0.009l-6.398-6.397
		c-0.317-0.317-0.322-0.829-0.009-1.142l2.933-2.933c0.312-0.312,0.825-0.308,1.142,0.009l6.398,6.398
		C61.189,23.263,61.194,23.774,60.882,24.086z M53.894,17.128l-2.914,2.922l6.408,6.38l2.899-2.909L53.894,17.128z"/>
</g>
<g>
	<path fill="#6C7988" d="M78.305,41.508l-2.933,2.933c-0.311,0.311-0.825,0.308-1.142-0.009l-6.688-6.688
		c-0.318-0.317-0.322-0.83-0.009-1.143l2.933-2.933c0.312-0.312,0.824-0.308,1.142,0.009l6.688,6.688
		C78.611,40.685,78.617,41.197,78.305,41.508z M71.024,34.26l-2.913,2.923l6.698,6.669l2.9-2.908L71.024,34.26z"/>
</g>
<g>
	<path fill="#6C7988" d="M87.016,50.22l-2.933,2.933c-0.311,0.311-0.825,0.308-1.142-0.009l-6.688-6.689
		c-0.317-0.317-0.321-0.829-0.008-1.141l2.933-2.933c0.312-0.312,0.824-0.309,1.141,0.009l6.688,6.688
		C87.323,49.396,87.328,49.909,87.016,50.22z M79.736,42.972l-2.914,2.923l6.697,6.669l2.899-2.909L79.736,42.972z"/>
</g>
<g>
	<path fill="#6C7988" d="M95.728,58.932l-2.933,2.933c-0.311,0.311-0.824,0.309-1.142-0.009l-6.688-6.688
		c-0.317-0.317-0.322-0.83-0.009-1.143l2.933-2.933c0.312-0.312,0.824-0.308,1.142,0.009l6.688,6.688
		C96.034,58.106,96.04,58.62,95.728,58.932z M88.447,51.682l-2.913,2.924l6.697,6.669l2.899-2.909L88.447,51.682z"/>
</g>
<g>
	<path fill="#6C7988" d="M104.437,67.641l-2.933,2.933c-0.312,0.311-0.824,0.309-1.143-0.008l-6.688-6.688
		c-0.316-0.316-0.321-0.829-0.008-1.142l2.933-2.933c0.312-0.312,0.825-0.307,1.141,0.009l6.688,6.688
		C104.744,66.816,104.748,67.329,104.437,67.641z M97.158,60.393l-2.914,2.923l6.698,6.67l2.898-2.91L97.158,60.393z"/>
</g>
<g>
	<path fill="#6C7988" d="M113.148,76.353l-2.934,2.933c-0.311,0.312-0.823,0.309-1.141-0.008l-6.688-6.689
		c-0.317-0.317-0.321-0.829-0.009-1.141l2.934-2.933c0.313-0.312,0.824-0.309,1.141,0.008l6.688,6.689
		C113.455,75.528,113.459,76.041,113.148,76.353z M105.869,69.104l-2.912,2.924l6.696,6.668l2.898-2.91L105.869,69.104z"/>
</g>
<g>
	<path fill="#6C7988" d="M130.569,93.773l-2.933,2.934c-0.311,0.311-0.825,0.308-1.143-0.008l-6.688-6.689
		c-0.316-0.317-0.321-0.829-0.008-1.142l2.933-2.933c0.312-0.312,0.824-0.309,1.142,0.009l6.688,6.688
		C130.877,92.95,130.881,93.461,130.569,93.773z M123.291,86.525l-2.912,2.925l6.697,6.668l2.897-2.911L123.291,86.525z"/>
</g>
<g>
	<path fill="#6C7988" d="M139.281,102.485l-2.933,2.935c-0.312,0.311-0.825,0.308-1.142-0.01l-6.688-6.688
		c-0.315-0.315-0.321-0.828-0.008-1.142l2.933-2.934c0.313-0.312,0.822-0.31,1.141,0.009l6.689,6.688
		C139.588,101.662,139.594,102.174,139.281,102.485z M132.002,95.236l-2.914,2.924l6.697,6.67l2.899-2.91L132.002,95.236z"/>
</g>
<g>
	<path fill="#6C7988" d="M147.991,111.195l-2.933,2.934c-0.312,0.312-0.825,0.31-1.142-0.008l-6.69-6.689
		c-0.314-0.314-0.32-0.829-0.008-1.143l2.933-2.933c0.313-0.313,0.824-0.31,1.141,0.009l6.69,6.689
		C148.3,110.373,148.304,110.883,147.991,111.195z M140.712,103.947l-2.913,2.924l6.698,6.67l2.898-2.908L140.712,103.947z"/>
</g>
<g>
	<path fill="#6C7988" d="M156.702,119.906l-2.933,2.934c-0.312,0.312-0.825,0.31-1.144-0.008l-6.688-6.688
		c-0.316-0.317-0.32-0.828-0.008-1.142l2.934-2.934c0.313-0.313,0.822-0.311,1.141,0.01l6.688,6.688
		C157.011,119.082,157.015,119.595,156.702,119.906z M149.423,112.658l-2.911,2.926l6.696,6.668l2.897-2.91L149.423,112.658z"/>
</g>
<g>
	<path fill="#6C7988" d="M165.415,128.619l-2.935,2.934c-0.312,0.311-0.823,0.309-1.142-0.01l-6.688-6.688
		c-0.315-0.315-0.321-0.828-0.009-1.142l2.934-2.934c0.313-0.313,0.822-0.31,1.141,0.01l6.688,6.688
		C165.722,127.793,165.727,128.307,165.415,128.619z M158.135,121.369l-2.912,2.924l6.696,6.668l2.898-2.908L158.135,121.369z"/>
</g>
<g>
	<path fill="#6C7988" d="M174.995,138.199l-2.934,2.934c-0.313,0.311-0.824,0.309-1.143-0.01l-7.559-7.558
		c-0.316-0.317-0.32-0.83-0.008-1.142l2.934-2.934c0.312-0.313,0.823-0.31,1.142,0.01l7.558,7.558
		C175.304,137.375,175.308,137.887,174.995,138.199z M166.846,130.08l-2.911,2.926l7.566,7.537l2.899-2.908L166.846,130.08z"/>
</g>
<g>
	<path fill="#6C7988" d="M146.54,166.656l-6.131,6.129c-0.311,0.311-0.821,0.307-1.14-0.013l-17.141-17.14
		c-0.316-0.317-0.322-0.827-0.01-1.141l6.129-6.129c0.31-0.311,0.824-0.309,1.142,0.01l17.14,17.14
		C146.849,165.832,146.851,166.344,146.54,166.656z M128.81,148.955l-6.108,6.119l17.149,17.118l6.092-6.103L128.81,148.955
		L128.81,148.955z"/>
</g>
<g>
	<path fill="#6C7988" d="M40.555,76.935l-6.126,6.126c-0.312,0.312-0.819,0.313-1.131,0.001l-6.418-6.418
		c-0.312-0.313-0.313-0.819,0-1.132l6.126-6.126c0.312-0.312,0.82-0.313,1.133-0.001l6.418,6.418
		C40.868,76.114,40.868,76.622,40.555,76.935z M33.558,69.964l-6.098,6.127l6.418,6.388l6.083-6.112L33.558,69.964z"/>
</g>
<g>
	<path fill="#6C7988" d="M50.429,86.808l-6.127,6.126c-0.312,0.313-0.82,0.313-1.133,0l-7.869-7.87
		c-0.312-0.311-0.314-0.819-0.001-1.133l6.126-6.126c0.312-0.312,0.821-0.313,1.134,0l7.87,7.869
		C50.741,85.985,50.741,86.495,50.429,86.808z M41.979,78.385l-6.098,6.127l7.87,7.84l6.083-6.112L41.979,78.385z"/>
</g>
<g>
	<path fill="#6C7988" d="M112.274,148.653l-6.126,6.128c-0.313,0.313-0.82,0.313-1.133,0l-6.417-6.419
		c-0.313-0.313-0.314-0.817,0-1.133l6.126-6.125c0.313-0.313,0.82-0.313,1.134,0l6.417,6.416
		C112.588,147.834,112.588,148.342,112.274,148.653z M105.277,141.686l-6.098,6.127l6.418,6.389l6.083-6.113L105.277,141.686z"/>
</g>
<g>
	<path fill="#6C7988" d="M129.987,166.367l-6.126,6.127c-0.313,0.313-0.818,0.313-1.133-0.002l-6.417-6.416
		c-0.313-0.313-0.313-0.818,0-1.134l6.126-6.125c0.313-0.313,0.82-0.313,1.133-0.002l6.417,6.418
		C130.302,165.547,130.301,166.055,129.987,166.367z M122.99,159.397l-6.098,6.127l6.418,6.388l6.083-6.111L122.99,159.397z"/>
</g>
<g>
	<path fill="#6C7988" d="M118.082,161.432l-2.641,2.641c-0.313,0.313-0.82,0.314-1.135,0l-6.417-6.416
		c-0.312-0.313-0.312-0.82,0.002-1.135l2.642-2.641c0.313-0.313,0.819-0.314,1.133-0.002l6.416,6.418
		C118.396,160.61,118.396,161.117,118.082,161.432z M111.084,154.461l-2.613,2.643l6.418,6.389l2.599-2.627L111.084,154.461z"/>
</g>
<g>
	<path fill="#6C7988" d="M134.922,178.271l-2.641,2.642c-0.313,0.313-0.82,0.313-1.134,0.002l-6.417-6.418
		c-0.313-0.312-0.313-0.818,0.001-1.134l2.642-2.641c0.313-0.313,0.819-0.313,1.133-0.002l6.418,6.416
		C135.235,177.451,135.236,177.957,134.922,178.271z M127.927,171.303l-2.613,2.643l6.419,6.389l2.598-2.627L127.927,171.303z"/>
</g>
<g>
	<path fill="#6C7988" d="M103.854,140.233l-6.126,6.127c-0.312,0.313-0.82,0.313-1.133,0l-7.869-7.868
		c-0.312-0.313-0.313-0.82,0-1.134l6.126-6.126c0.312-0.313,0.82-0.314,1.133-0.001l7.869,7.87
		C104.168,139.414,104.168,139.922,103.854,140.233z M95.407,131.813l-6.098,6.128l7.87,7.838l6.083-6.11L95.407,131.813z"/>
</g>
<g opacity="0.2">
	<path fill="#6C7988" d="M5.496,56.917L56.684,5.729c-1.387-0.641-3.09-0.395-4.233,0.748L1.923,57.005
		c-1.768,1.768-0.772,4.691,0.691,6.155l123.488,123.488c1.465,1.465,3.287,2.605,5.121,1.227l0.329-0.33
		c-0.391-0.18-1.012-0.361-1.332-0.682L5.497,62.229C4.033,60.766,4.031,58.382,5.496,56.917L5.496,56.917z"/>
</g>
<g>
	<g>
		<path fill="#6C7988" d="M138.81,46l6.557,6.235c0.323,0.309,0.34,0.824,0.037,1.141l-5.974,6.281
			c-0.305,0.32-0.814,0.327-1.141,0.018l-6.558-6.236c-0.325-0.309-0.342-0.822-0.039-1.14l5.974-6.282
			C137.97,45.699,138.483,45.689,138.81,46z M144.798,52.831l-6.552-6.229l-5.947,6.243l6.535,6.246L144.798,52.831L144.798,52.831z
			"/>
	</g>
	<path opacity="0.2" fill="#6C7988" enable-background="new    " d="M132.318,53.637l6.536,6.247l5.964-6.26l-0.009-0.009
		l0.559-0.605l0.019,0.018c0.323,0.309,0.432,0.997,0.129,1.314l-6.208,6.513c-0.304,0.32-0.815,0.327-1.14,0.018l-6.649-6.409
		c-0.326-0.309-0.106-1.054,0.194-1.372l0.023-0.024L132.318,53.637z"/>
</g>
<g>
	<g>
		<path fill="#6C7988" d="M184.269,24.605l8.225,3.77c0.406,0.187,0.588,0.669,0.404,1.067l-3.611,7.879
			c-0.184,0.401-0.666,0.574-1.072,0.387l-8.228-3.771c-0.407-0.187-0.59-0.667-0.405-1.065l3.611-7.88
			C183.376,24.593,183.858,24.418,184.269,24.605z M192.149,29.124l-8.219-3.765l-3.6,7.835l8.209,3.787L192.149,29.124
			L192.149,29.124z"/>
	</g>
	<path opacity="0.2" fill="#6C7988" enable-background="new    " d="M180.606,33.936l8.208,3.788l3.608-7.857l-0.012-0.005
		l0.332-0.753l0.023,0.011c0.406,0.187,0.73,0.802,0.547,1.201l-3.758,8.175c-0.184,0.401-0.666,0.574-1.072,0.387l-8.369-3.904
		c-0.408-0.187-0.443-0.962-0.261-1.361l0.015-0.031L180.606,33.936z"/>
</g>
<g>
	<g>
		<path fill="#6C7988" d="M56.061,139.785l8.417,3.315c0.417,0.164,0.625,0.635,0.464,1.043l-3.178,8.063
			c-0.162,0.41-0.633,0.609-1.05,0.445l-8.42-3.318c-0.417-0.164-0.625-0.633-0.464-1.041l3.177-8.063
			C55.168,139.819,55.642,139.619,56.061,139.785z M64.175,143.865l-8.412-3.312l-3.167,8.021L61,151.908L64.175,143.865
			L64.175,143.865z"/>
	</g>
	<path opacity="0.2" fill="#6C7988" enable-background="new    " d="M52.913,149.301l8.403,3.334l3.176-8.043l-0.012-0.004
		l0.29-0.771l0.023,0.009c0.417,0.166,0.775,0.762,0.614,1.17l-3.308,8.366c-0.162,0.41-0.633,0.611-1.05,0.445l-8.569-3.44
		c-0.418-0.166-0.496-0.938-0.334-1.347l0.013-0.03L52.913,149.301z"/>
</g>
<g>
	<g>
		<path fill="#6C7988" d="M80.156,157.854l2.856,8.584c0.142,0.426-0.087,0.887-0.502,1.025l-8.226,2.736
			c-0.418,0.139-0.873-0.097-1.014-0.521l-2.856-8.588c-0.142-0.424,0.084-0.885,0.501-1.023l8.225-2.736
			C79.557,157.19,80.015,157.426,80.156,157.854z M82.231,166.697l-2.855-8.578l-8.184,2.715l2.833,8.584L82.231,166.697
			L82.231,166.697z"/>
	</g>
	<path opacity="0.2" fill="#6C7988" enable-background="new    " d="M70.837,161.541l2.832,8.586l8.208-2.724l-0.004-0.012
		l0.777-0.271l0.008,0.022c0.141,0.426-0.087,1.084-0.504,1.224l-8.541,2.827c-0.418,0.14-0.875-0.094-1.015-0.521l-2.855-8.78
		c-0.142-0.429,0.4-0.979,0.817-1.119l0.033-0.012L70.837,161.541z"/>
</g>
<g>
	<g>
		<path fill="#6C7988" d="M127.617,25.038l8.691,2.517c0.43,0.125,0.682,0.575,0.559,0.996l-2.412,8.325
			c-0.123,0.425-0.574,0.666-1.004,0.541l-8.691-2.518c-0.432-0.125-0.682-0.572-0.559-0.994l2.41-8.326
			C126.734,25.157,127.187,24.913,127.617,25.038z M136.08,28.345l-8.685-2.514l-2.407,8.28l8.678,2.537L136.08,28.345
			L136.08,28.345z"/>
	</g>
	<path opacity="0.2" fill="#6C7988" enable-background="new    " d="M125.371,34.805l8.678,2.538l2.414-8.304l-0.014-0.003
		l0.217-0.794l0.024,0.007c0.431,0.125,0.843,0.687,0.72,1.107l-2.514,8.639c-0.123,0.424-0.574,0.666-1.004,0.541l-8.854-2.628
		c-0.432-0.125-0.58-0.886-0.457-1.308l0.008-0.033L125.371,34.805z"/>
</g>
<g>
	<g>
		<path fill="#6C7988" d="M127.084,10.574l-2.933,2.933c-0.312,0.311-0.823,0.309-1.141-0.008l-6.688-6.689
			c-0.316-0.316-0.322-0.829-0.009-1.142l2.933-2.933c0.313-0.312,0.824-0.308,1.142,0.009l6.688,6.689
			C127.393,9.75,127.396,10.262,127.084,10.574z M119.806,3.325l-2.913,2.924l6.697,6.669l2.9-2.909L119.806,3.325z"/>
	</g>
	<path opacity="0.2" fill="#6C7988" enable-background="new    " d="M116.873,6.974l6.768,6.6l2.881-2.956l0.541-0.621l0.032,0.031
		c0.321,0.312,0.333,0.824,0.026,1.141l-2.891,2.976c-0.466,0.516-1.02,0.551-1.341,0.24l-6.72-6.724
		c-0.321-0.312-0.199-0.924,0.107-1.239l0.014-0.014L116.873,6.974z"/>
</g>
<g>
	<g>
		<path fill="#6C7988" d="M178.948,39.031l-1.955,3.659c-0.207,0.388-0.699,0.534-1.095,0.323l-8.344-4.458
			c-0.396-0.21-0.548-0.7-0.341-1.09l1.955-3.658c0.209-0.389,0.699-0.534,1.096-0.323l8.344,4.458
			C179.003,38.153,179.155,38.643,178.948,39.031z M169.878,34.208l-1.939,3.644l8.348,4.437l1.93-3.625L169.878,34.208z"/>
	</g>
	<path opacity="0.2" fill="#6C7988" enable-background="new    " d="M168.132,38.55l8.391,4.351l1.898-3.665l0.338-0.751
		l0.039,0.021c0.397,0.205,0.559,0.692,0.356,1.084l-1.901,3.687c-0.297,0.629-0.815,0.823-1.215,0.619l-8.381-4.483
		c-0.397-0.205-0.459-0.826-0.258-1.217l0.01-0.017L168.132,38.55z"/>
</g>
<g>
	<g>
		<path fill="#6C7988" d="M183.605,59.458l-6.127,6.127c-0.313,0.313-0.825,0.31-1.144-0.008l-12.494-12.495
			c-0.317-0.316-0.321-0.828-0.008-1.143l6.127-6.126c0.312-0.312,0.824-0.309,1.141,0.009l12.495,12.495
			C183.915,58.633,183.917,59.146,183.605,59.458z M170.521,46.401l-6.105,6.118l12.502,12.476l6.095-6.104L170.521,46.401z"/>
	</g>
	<path opacity="0.2" fill="#6C7988" enable-background="new    " d="M183.274,59.193l-6.413,6.412l-12.71-12.787l-0.318,0.318
		c-0.313,0.314-0.31,0.826,0.008,1.143l12.496,12.495c0.316,0.317,0.83,0.32,1.143,0.008l6.127-6.127
		c0.313-0.313,0.309-0.823-0.01-1.141L183.274,59.193z"/>
</g>
<g>
	<g>
		<path fill="#6C7988" d="M119.728,32.4l-8.063,3.168c-0.412,0.162-0.881-0.046-1.045-0.464l-6.461-16.447
			c-0.166-0.417,0.036-0.888,0.449-1.051l8.064-3.167c0.41-0.161,0.879,0.046,1.041,0.464l6.461,16.447
			C120.34,31.77,120.139,32.24,119.728,32.4z M112.949,15.205l-8.041,3.169l6.475,16.432l8.025-3.161L112.949,15.205z"/>
	</g>
	<path opacity="0.2" fill="#6C7988" enable-background="new    " d="M119.529,32.026l-8.441,3.315l-6.541-16.8l-0.42,0.165
		c-0.412,0.163-0.613,0.633-0.448,1.05l6.461,16.447c0.164,0.417,0.633,0.625,1.044,0.463l8.064-3.168
		c0.41-0.161,0.612-0.631,0.447-1.049L119.529,32.026z"/>
</g>
</svg>
