<?xml version="1.0" encoding="utf-8"?>
<!-- Generator: Adobe Illustrator 15.0.0, SVG Export Plug-In . SVG Version: 6.00 Build 0)  -->
<!DOCTYPE svg PUBLIC "-//W3C//DTD SVG 1.1//EN" "http://www.w3.org/Graphics/SVG/1.1/DTD/svg11.dtd">
<svg version="1.1" id="keyboard" xmlns="http://www.w3.org/2000/svg" xmlns:xlink="http://www.w3.org/1999/xlink" x="0px" y="0px"
	 width="235px" height="87px" viewBox="0 0 235 87" enable-background="new 0 0 235 87" xml:space="preserve">
<g>
	<g>
		<path fill="#6C7988" d="M217.44,82.061h-0.388c-7.752,0-14.061-6.307-14.061-14.059V46.088c0-7.752,6.309-14.06,14.061-14.06
			h0.388c7.753,0,14.06,6.307,14.06,14.06v21.914C231.5,75.754,225.193,82.061,217.44,82.061z M217.053,34.355
			c-6.469,0-11.732,5.263-11.732,11.732v21.914c0,6.47,5.264,11.731,11.732,11.731h0.388c6.47,0,11.733-5.262,11.733-11.731V46.088
			c0-6.47-5.264-11.732-11.733-11.732H217.053z"/>
	</g>
</g>
<g>
	<path fill="#6C7988" d="M217.246,48.318c-1.122,0-2.035-0.914-2.035-2.037v-4.072c0-1.123,0.913-2.036,2.035-2.036
		c1.123,0,2.036,0.913,2.036,2.036v4.072C219.282,47.404,218.369,48.318,217.246,48.318z M217.246,41.336
		c-0.48,0-0.872,0.392-0.872,0.873v4.072c0,0.482,0.392,0.873,0.872,0.873c0.481,0,0.873-0.391,0.873-0.873v-4.072
		C218.119,41.728,217.728,41.336,217.246,41.336z"/>
</g>
<g opacity="0.2">
	<path fill="#6C7988" d="M217.44,82.061h-0.388c-7.752,0-14.061-6.307-14.061-14.059V46.088c0-5.623,3.32-10.483,8.1-12.729
		c-6.893,1.055-10.426,6.523-10.426,13.71v22.956c0,7.933,6.43,14.364,14.363,14.364h0.363c5.219,0,7.445-1.7,10.557-5.204
		C223.586,80.986,220.637,82.061,217.44,82.061z"/>
</g>
<g>
	<g>
		<path fill="#6C7988" d="M189.488,5.854v72.565c0,2.071-1.685,3.755-3.755,3.755H9.277c-2.07,0-3.754-1.684-3.754-3.755V5.854
			c0-2.07,1.685-3.755,3.754-3.755h176.457C187.804,2.1,189.488,3.785,189.488,5.854z M7.165,78.419
			c0,1.165,0.947,2.112,2.112,2.112h176.457c1.165,0,2.112-0.947,2.112-2.112V5.854c0-1.165-0.947-2.112-2.112-2.112l-176.457,0
			c-1.165,0-2.112,0.948-2.112,2.112V78.419z"/>
	</g>
</g>
<g>
	<path fill="#6C7988" d="M120.501,67.781v8.664c0,0.442-0.359,0.801-0.801,0.801H60.938c-0.441,0-0.8-0.358-0.8-0.801v-8.664
		c0-0.441,0.359-0.801,0.8-0.801H119.7C120.142,66.98,120.501,67.34,120.501,67.781z M60.938,67.802l0.021,8.644l58.742-0.021
		l-0.021-8.623H60.938z"/>
</g>
<g>
	<path fill="#6C7988" d="M21.537,67.781v8.664c0,0.442-0.359,0.801-0.8,0.801h-8.665c-0.441,0-0.8-0.358-0.8-0.801v-8.664
		c0-0.441,0.359-0.801,0.8-0.801h8.665C21.178,66.98,21.537,67.34,21.537,67.781z M12.072,67.802l0.021,8.644l8.645-0.021
		l-0.021-8.623H12.072z"/>
</g>
<g>
	<path fill="#6C7988" d="M36.731,56.282v8.667c0,0.44-0.359,0.799-0.801,0.799H12.072c-0.441,0-0.8-0.358-0.8-0.799v-8.667
		c0-0.44,0.359-0.801,0.8-0.801H35.93C36.372,55.481,36.731,55.842,36.731,56.282z M12.072,56.304l0.021,8.646l23.838-0.022
		l-0.021-8.623H12.072z"/>
</g>
<g>
	<path fill="#6C7988" d="M33.035,67.781v8.664c0,0.442-0.359,0.801-0.8,0.801H23.57c-0.441,0-0.801-0.358-0.801-0.801v-8.664
		c0-0.441,0.359-0.801,0.801-0.801h8.665C32.676,66.98,33.035,67.34,33.035,67.781z M23.57,67.802l0.021,8.644l8.644-0.021
		l-0.021-8.623H23.57z"/>
</g>
<g>
	<path fill="#6C7988" d="M48.229,56.282v8.667c0,0.44-0.359,0.799-0.8,0.799h-8.665c-0.442,0-0.801-0.358-0.801-0.799v-8.667
		c0-0.44,0.359-0.801,0.801-0.801h8.665C47.87,55.481,48.229,55.842,48.229,56.282z M38.764,56.304l0.021,8.646l8.645-0.022
		l-0.021-8.623H38.764z"/>
</g>
<g>
	<path fill="#6C7988" d="M72.867,56.282v8.667c0,0.44-0.365,0.799-0.814,0.799h-9.048c-0.449,0-0.814-0.358-0.814-0.799v-8.667
		c0-0.44,0.365-0.801,0.814-0.801h9.048C72.502,55.481,72.867,55.842,72.867,56.282z M63.005,56.304l0.007,8.646l9.041-0.022
		l-0.007-8.623H63.005z"/>
</g>
<g>
	<path fill="#6C7988" d="M84.775,56.282v8.667c0,0.44-0.365,0.799-0.814,0.799h-9.048c-0.449,0-0.814-0.358-0.814-0.799v-8.667
		c0-0.44,0.366-0.801,0.814-0.801h9.048C84.41,55.481,84.775,55.842,84.775,56.282z M74.913,56.304l0.007,8.646l9.041-0.022
		l-0.007-8.623H74.913z"/>
</g>
<g>
	<path fill="#6C7988" d="M96.684,56.282v8.667c0,0.44-0.365,0.799-0.814,0.799h-9.048c-0.448,0-0.813-0.358-0.813-0.799v-8.667
		c0-0.44,0.365-0.801,0.813-0.801h9.048C96.319,55.481,96.684,55.842,96.684,56.282z M86.821,56.304l0.008,8.646l9.041-0.022
		l-0.007-8.623H86.821z"/>
</g>
<g>
	<path fill="#6C7988" d="M108.592,56.282v8.667c0,0.44-0.365,0.799-0.814,0.799H98.73c-0.449,0-0.814-0.358-0.814-0.799v-8.667
		c0-0.44,0.365-0.801,0.814-0.801h9.048C108.227,55.481,108.592,55.842,108.592,56.282z M98.73,56.304l0.007,8.646l9.041-0.022
		l-0.007-8.623H98.73z"/>
</g>
<g>
	<path fill="#6C7988" d="M120.501,56.282v8.667c0,0.44-0.366,0.799-0.814,0.799h-9.048c-0.449,0-0.814-0.358-0.814-0.799v-8.667
		c0-0.44,0.365-0.801,0.814-0.801h9.048C120.135,55.481,120.501,55.842,120.501,56.282z M110.639,56.304l0.008,8.646l9.041-0.022
		l-0.007-8.623H110.639z"/>
</g>
<g>
	<path fill="#6C7988" d="M132.41,56.282v8.667c0,0.44-0.366,0.799-0.814,0.799h-9.049c-0.448,0-0.813-0.358-0.813-0.799v-8.667
		c0-0.44,0.365-0.801,0.813-0.801h9.049C132.044,55.481,132.41,55.842,132.41,56.282z M122.547,56.304l0.008,8.646l9.041-0.022
		l-0.008-8.623H122.547z"/>
</g>
<g>
	<path fill="#6C7988" d="M144.318,56.282v8.667c0,0.44-0.365,0.799-0.814,0.799h-9.049c-0.448,0-0.813-0.358-0.813-0.799v-8.667
		c0-0.44,0.364-0.801,0.813-0.801h9.049C143.953,55.481,144.318,55.842,144.318,56.282z M134.455,56.304l0.008,8.646l9.041-0.022
		l-0.008-8.623H134.455z"/>
</g>
<g>
	<path fill="#6C7988" d="M156.227,56.282v8.667c0,0.44-0.365,0.799-0.814,0.799h-9.048c-0.448,0-0.813-0.358-0.813-0.799v-8.667
		c0-0.44,0.365-0.801,0.813-0.801h9.048C155.861,55.481,156.227,55.842,156.227,56.282z M146.364,56.304l0.008,8.646l9.04-0.022
		l-0.007-8.623H146.364z"/>
</g>
<g>
	<path fill="#6C7988" d="M79.438,45.195v8.665c0,0.442-0.366,0.801-0.814,0.801h-9.048c-0.449,0-0.814-0.358-0.814-0.801v-8.665
		c0-0.441,0.365-0.799,0.814-0.799h9.048C79.072,44.396,79.438,44.754,79.438,45.195z M69.575,45.217l0.007,8.644l9.042-0.02
		l-0.007-8.624H69.575z"/>
</g>
<g>
	<path fill="#6C7988" d="M91.346,45.195v8.665c0,0.442-0.365,0.801-0.814,0.801h-9.048c-0.449,0-0.814-0.358-0.814-0.801v-8.665
		c0-0.441,0.365-0.799,0.814-0.799h9.048C90.98,44.396,91.346,44.754,91.346,45.195z M81.483,45.217l0.007,8.644l9.042-0.02
		l-0.007-8.624H81.483z"/>
</g>
<g>
	<path fill="#6C7988" d="M103.254,45.195v8.665c0,0.442-0.366,0.801-0.814,0.801h-9.049c-0.448,0-0.814-0.358-0.814-0.801v-8.665
		c0-0.441,0.366-0.799,0.814-0.799h9.049C102.889,44.396,103.254,44.754,103.254,45.195z M93.392,45.217l0.008,8.644l9.041-0.02
		l-0.008-8.624H93.392z"/>
</g>
<g>
	<path fill="#6C7988" d="M115.163,45.195v8.665c0,0.442-0.366,0.801-0.814,0.801H105.3c-0.448,0-0.813-0.358-0.813-0.801v-8.665
		c0-0.441,0.365-0.799,0.813-0.799h9.049C114.797,44.396,115.163,44.754,115.163,45.195z M105.3,45.217l0.008,8.644l9.041-0.02
		l-0.007-8.624H105.3z"/>
</g>
<g>
	<path fill="#6C7988" d="M127.071,45.195v8.665c0,0.442-0.365,0.801-0.814,0.801h-9.048c-0.449,0-0.814-0.358-0.814-0.801v-8.665
		c0-0.441,0.365-0.799,0.814-0.799h9.048C126.706,44.396,127.071,44.754,127.071,45.195z M117.209,45.217l0.008,8.644l9.04-0.02
		l-0.007-8.624H117.209z"/>
</g>
<g>
	<path fill="#6C7988" d="M138.979,45.195v8.665c0,0.442-0.366,0.801-0.813,0.801h-9.049c-0.449,0-0.813-0.358-0.813-0.801v-8.665
		c0-0.441,0.365-0.799,0.813-0.799h9.049C138.613,44.396,138.979,44.754,138.979,45.195z M129.117,45.217l0.008,8.644l9.041-0.02
		l-0.008-8.624H129.117z"/>
</g>
<g>
	<path fill="#6C7988" d="M150.889,45.195v8.665c0,0.442-0.365,0.801-0.815,0.801h-9.048c-0.448,0-0.813-0.358-0.813-0.801v-8.665
		c0-0.441,0.364-0.799,0.813-0.799h9.048C150.523,44.396,150.889,44.754,150.889,45.195z M141.025,45.217l0.008,8.644l9.04-0.02
		l-0.007-8.624H141.025z"/>
</g>
<g>
	<path fill="#6C7988" d="M162.796,45.195v8.665c0,0.442-0.364,0.801-0.813,0.801h-9.048c-0.448,0-0.813-0.358-0.813-0.801v-8.665
		c0-0.441,0.365-0.799,0.813-0.799h9.048C162.432,44.396,162.796,44.754,162.796,45.195z M152.935,45.217l0.008,8.644l9.04-0.02
		l-0.007-8.624H152.935z"/>
</g>
<g>
	<path fill="#6C7988" d="M183.328,45.195v8.665c0,0.442-0.365,0.801-0.814,0.801h-17.671c-0.448,0-0.813-0.358-0.813-0.801v-8.665
		c0-0.441,0.365-0.799,0.813-0.799h17.671C182.963,44.396,183.328,44.754,183.328,45.195z M164.843,45.217l0.008,8.644l17.663-0.02
		l-0.007-8.624H164.843z"/>
</g>
<g>
	<path fill="#6C7988" d="M99.969,34.108v8.666c0,0.441-0.365,0.8-0.813,0.8h-9.049c-0.448,0-0.813-0.359-0.813-0.8v-8.666
		c0-0.441,0.365-0.8,0.813-0.8h9.049C99.604,33.308,99.969,33.667,99.969,34.108z M90.106,34.129l0.007,8.645l9.042-0.022
		l-0.008-8.623H90.106z"/>
</g>
<g>
	<path fill="#6C7988" d="M111.877,34.108v8.666c0,0.441-0.365,0.8-0.814,0.8h-9.048c-0.448,0-0.813-0.359-0.813-0.8v-8.666
		c0-0.441,0.365-0.8,0.813-0.8h9.048C111.512,33.308,111.877,33.667,111.877,34.108z M102.015,34.129l0.008,8.645l9.04-0.022
		l-0.007-8.623H102.015z"/>
</g>
<g>
	<path fill="#6C7988" d="M123.786,34.108v8.666c0,0.441-0.365,0.8-0.813,0.8h-9.049c-0.448,0-0.813-0.359-0.813-0.8v-8.666
		c0-0.441,0.365-0.8,0.813-0.8h9.049C123.421,33.308,123.786,33.667,123.786,34.108z M113.923,34.129l0.008,8.645l9.041-0.022
		l-0.007-8.623H113.923z"/>
</g>
<g>
	<path fill="#6C7988" d="M135.694,34.108v8.666c0,0.441-0.365,0.8-0.813,0.8h-9.049c-0.448,0-0.813-0.359-0.813-0.8v-8.666
		c0-0.441,0.365-0.8,0.813-0.8h9.049C135.329,33.308,135.694,33.667,135.694,34.108z M125.832,34.129l0.008,8.645l9.041-0.022
		l-0.008-8.623H125.832z"/>
</g>
<g>
	<path fill="#6C7988" d="M147.604,34.108v8.666c0,0.441-0.365,0.8-0.814,0.8h-9.049c-0.448,0-0.813-0.359-0.813-0.8v-8.666
		c0-0.441,0.364-0.8,0.813-0.8h9.049C147.238,33.308,147.604,33.667,147.604,34.108z M137.74,34.129l0.008,8.645l9.041-0.022
		l-0.008-8.623H137.74z"/>
</g>
<g>
	<path fill="#6C7988" d="M159.512,34.108v8.666c0,0.441-0.365,0.8-0.814,0.8h-9.049c-0.448,0-0.813-0.359-0.813-0.8v-8.666
		c0-0.441,0.364-0.8,0.813-0.8h9.049C159.146,33.308,159.512,33.667,159.512,34.108z M149.648,34.129l0.009,8.645l9.04-0.022
		l-0.008-8.623H149.648z"/>
</g>
<g>
	<path fill="#6C7988" d="M171.42,34.108v8.666c0,0.441-0.365,0.8-0.813,0.8h-9.05c-0.447,0-0.813-0.359-0.813-0.8v-8.666
		c0-0.441,0.365-0.8,0.813-0.8h9.05C171.055,33.308,171.42,33.667,171.42,34.108z M161.557,34.129l0.008,8.645l9.042-0.022
		l-0.008-8.623H161.557z"/>
</g>
<g>
	<path fill="#6C7988" d="M183.328,34.108v8.666c0,0.441-0.365,0.8-0.814,0.8h-9.047c-0.449,0-0.814-0.359-0.814-0.8v-8.666
		c0-0.441,0.365-0.8,0.814-0.8h9.047C182.963,33.308,183.328,33.667,183.328,34.108z M173.467,34.129l0.008,8.645l9.039-0.022
		l-0.007-8.623H173.467z"/>
</g>
<g>
	<path fill="#6C7988" d="M40.427,34.108v8.666c0,0.441-0.365,0.8-0.814,0.8h-9.048c-0.449,0-0.814-0.359-0.814-0.8v-8.666
		c0-0.441,0.365-0.8,0.814-0.8h9.048C40.062,33.308,40.427,33.667,40.427,34.108z M30.564,34.129l0.007,8.645l9.041-0.022
		l-0.007-8.623H30.564z"/>
</g>
<g>
	<path fill="#6C7988" d="M28.518,34.108v8.666c0,0.441-0.365,0.8-0.814,0.8H12.085c-0.449,0-0.814-0.359-0.814-0.8v-8.666
		c0-0.441,0.365-0.8,0.814-0.8h15.619C28.153,33.308,28.518,33.667,28.518,34.108z M12.085,34.129l0.007,8.645l15.612-0.022
		l-0.007-8.623H12.085z"/>
</g>
<g>
	<path fill="#6C7988" d="M30.981,45.195v8.665c0,0.442-0.365,0.801-0.813,0.801H12.085c-0.449,0-0.814-0.358-0.814-0.801v-8.665
		c0-0.441,0.365-0.799,0.814-0.799h18.083C30.617,44.396,30.981,44.754,30.981,45.195z M12.085,45.217l0.007,8.644l18.076-0.02
		l-0.007-8.624H12.085z"/>
</g>
<g>
	<path fill="#6C7988" d="M52.335,34.108v8.666c0,0.441-0.365,0.8-0.814,0.8h-9.048c-0.449,0-0.814-0.359-0.814-0.8v-8.666
		c0-0.441,0.365-0.8,0.814-0.8h9.048C51.97,33.308,52.335,33.667,52.335,34.108z M42.473,34.129l0.007,8.645l9.041-0.022
		l-0.007-8.623H42.473z"/>
</g>
<g>
	<path fill="#6C7988" d="M64.244,34.108v8.666c0,0.441-0.366,0.8-0.814,0.8h-9.048c-0.449,0-0.814-0.359-0.814-0.8v-8.666
		c0-0.441,0.365-0.8,0.814-0.8h9.048C63.878,33.308,64.244,33.667,64.244,34.108z M54.381,34.129l0.007,8.645l9.042-0.022
		l-0.008-8.623H54.381z"/>
</g>
<g>
	<path fill="#6C7988" d="M43.712,45.195v8.665c0,0.442-0.366,0.801-0.815,0.801H33.85c-0.449,0-0.814-0.358-0.814-0.801v-8.665
		c0-0.441,0.365-0.799,0.814-0.799h9.047C43.346,44.396,43.712,44.754,43.712,45.195z M33.85,45.217l0.007,8.644l9.041-0.02
		l-0.006-8.624H33.85z"/>
</g>
<g>
	<path fill="#6C7988" d="M55.62,45.195v8.665c0,0.442-0.365,0.801-0.814,0.801h-9.047c-0.449,0-0.815-0.358-0.815-0.801v-8.665
		c0-0.441,0.366-0.799,0.815-0.799h9.047C55.255,44.396,55.62,44.754,55.62,45.195z M45.758,45.217l0.007,8.644l9.041-0.02
		l-0.006-8.624H45.758z"/>
</g>
<g>
	<path fill="#6C7988" d="M67.528,45.195v8.665c0,0.442-0.365,0.801-0.813,0.801h-9.049c-0.448,0-0.814-0.358-0.814-0.801v-8.665
		c0-0.441,0.366-0.799,0.814-0.799h9.049C67.164,44.396,67.528,44.754,67.528,45.195z M57.666,45.217l0.008,8.644l9.041-0.02
		l-0.007-8.624H57.666z"/>
</g>
<g>
	<path fill="#6C7988" d="M76.152,34.108v8.666c0,0.441-0.366,0.8-0.815,0.8H66.29c-0.449,0-0.814-0.359-0.814-0.8v-8.666
		c0-0.441,0.365-0.8,0.814-0.8h9.047C75.787,33.308,76.152,33.667,76.152,34.108z M66.29,34.129l0.006,8.645l9.041-0.022
		l-0.007-8.623H66.29z"/>
</g>
<g>
	<path fill="#6C7988" d="M88.061,34.108v8.666c0,0.441-0.365,0.8-0.814,0.8h-9.048c-0.449,0-0.815-0.359-0.815-0.8v-8.666
		c0-0.441,0.366-0.8,0.815-0.8h9.048C87.695,33.308,88.061,33.667,88.061,34.108z M78.199,34.129l0.007,8.645l9.041-0.022
		l-0.007-8.623H78.199z"/>
</g>
<g>
	<path fill="#6C7988" d="M81.08,23.021v8.666c0,0.441-0.366,0.8-0.815,0.8h-9.048c-0.449,0-0.814-0.359-0.814-0.8v-8.666
		c0-0.441,0.365-0.8,0.814-0.8h9.048C80.714,22.221,81.08,22.58,81.08,23.021z M71.217,23.042l0.007,8.645l9.041-0.021l-0.007-8.624
		H71.217z"/>
</g>
<g>
	<path fill="#6C7988" d="M92.988,23.021v8.666c0,0.441-0.365,0.8-0.814,0.8h-9.048c-0.449,0-0.814-0.359-0.814-0.8v-8.666
		c0-0.441,0.365-0.8,0.814-0.8h9.048C92.624,22.221,92.988,22.58,92.988,23.021z M83.126,23.042l0.007,8.645l9.042-0.021
		l-0.007-8.624H83.126z"/>
</g>
<g>
	<path fill="#6C7988" d="M104.896,23.021v8.666c0,0.441-0.365,0.8-0.814,0.8h-9.048c-0.448,0-0.813-0.359-0.813-0.8v-8.666
		c0-0.441,0.365-0.8,0.813-0.8h9.048C104.531,22.221,104.896,22.58,104.896,23.021z M95.034,23.042l0.008,8.645l9.041-0.021
		l-0.007-8.624H95.034z"/>
</g>
<g>
	<path fill="#6C7988" d="M116.805,23.021v8.666c0,0.441-0.366,0.8-0.814,0.8h-9.048c-0.449,0-0.813-0.359-0.813-0.8v-8.666
		c0-0.441,0.365-0.8,0.813-0.8h9.048C116.439,22.221,116.805,22.58,116.805,23.021z M106.943,23.042l0.008,8.645l9.04-0.021
		l-0.007-8.624H106.943z"/>
</g>
<g>
	<path fill="#6C7988" d="M128.713,23.021v8.666c0,0.441-0.365,0.8-0.814,0.8h-9.048c-0.448,0-0.813-0.359-0.813-0.8v-8.666
		c0-0.441,0.365-0.8,0.813-0.8h9.048C128.349,22.221,128.713,22.58,128.713,23.021z M118.851,23.042l0.008,8.645l9.041-0.021
		l-0.007-8.624H118.851z"/>
</g>
<g>
	<path fill="#6C7988" d="M140.622,23.021v8.666c0,0.441-0.365,0.8-0.813,0.8h-9.049c-0.448,0-0.813-0.359-0.813-0.8v-8.666
		c0-0.441,0.365-0.8,0.813-0.8h9.049C140.257,22.221,140.622,22.58,140.622,23.021z M130.76,23.042l0.008,8.645l9.041-0.021
		l-0.008-8.624H130.76z"/>
</g>
<g>
	<path fill="#6C7988" d="M152.531,23.021v8.666c0,0.441-0.366,0.8-0.814,0.8h-9.049c-0.448,0-0.813-0.359-0.813-0.8v-8.666
		c0-0.441,0.364-0.8,0.813-0.8h9.049C152.165,22.221,152.531,22.58,152.531,23.021z M142.668,23.042l0.008,8.645l9.041-0.021
		l-0.008-8.624H142.668z"/>
</g>
<g>
	<path fill="#6C7988" d="M164.439,23.021v8.666c0,0.441-0.365,0.8-0.814,0.8h-9.049c-0.447,0-0.813-0.359-0.813-0.8v-8.666
		c0-0.441,0.365-0.8,0.813-0.8h9.049C164.074,22.221,164.439,22.58,164.439,23.021z M154.576,23.042l0.008,8.645l9.041-0.021
		l-0.007-8.624H154.576z"/>
</g>
<g>
	<path fill="#6C7988" d="M183.328,23.021v8.666c0,0.441-0.365,0.8-0.814,0.8h-16.028c-0.448,0-0.813-0.359-0.813-0.8v-8.666
		c0-0.441,0.365-0.8,0.813-0.8h16.028C182.963,22.221,183.328,22.58,183.328,23.021z M166.485,23.042l0.008,8.645l16.021-0.021
		l-0.007-8.624H166.485z"/>
</g>
<g>
	<path fill="#6C7988" d="M21.537,23.021v8.666c0,0.441-0.365,0.8-0.814,0.8h-8.637c-0.449,0-0.814-0.359-0.814-0.8v-8.666
		c0-0.441,0.365-0.8,0.814-0.8h8.637C21.172,22.221,21.537,22.58,21.537,23.021z M12.085,23.042l0.007,8.645l8.63-0.021
		l-0.006-8.624H12.085z"/>
</g>
<g>
	<path fill="#6C7988" d="M33.446,23.021v8.666c0,0.441-0.365,0.8-0.814,0.8h-9.048c-0.449,0-0.814-0.359-0.814-0.8v-8.666
		c0-0.441,0.366-0.8,0.814-0.8h9.048C33.081,22.221,33.446,22.58,33.446,23.021z M23.583,23.042l0.007,8.645l9.041-0.021
		l-0.007-8.624H23.583z"/>
</g>
<g>
	<path fill="#6C7988" d="M45.354,23.021v8.666c0,0.441-0.365,0.8-0.814,0.8h-9.048c-0.449,0-0.814-0.359-0.814-0.8v-8.666
		c0-0.441,0.365-0.8,0.814-0.8h9.048C44.989,22.221,45.354,22.58,45.354,23.021z M35.492,23.042l0.007,8.645l9.041-0.021
		l-0.007-8.624H35.492z"/>
</g>
<g>
	<path fill="#6C7988" d="M57.263,23.021v8.666c0,0.441-0.365,0.8-0.814,0.8H47.4c-0.449,0-0.814-0.359-0.814-0.8v-8.666
		c0-0.441,0.365-0.8,0.814-0.8h9.048C56.897,22.221,57.263,22.58,57.263,23.021z M47.4,23.042l0.007,8.645l9.042-0.021l-0.007-8.624
		H47.4z"/>
</g>
<g>
	<path fill="#6C7988" d="M69.171,23.021v8.666c0,0.441-0.366,0.8-0.814,0.8h-9.048c-0.449,0-0.814-0.359-0.814-0.8v-8.666
		c0-0.441,0.365-0.8,0.814-0.8h9.048C68.806,22.221,69.171,22.58,69.171,23.021z M59.309,23.042l0.007,8.645l9.041-0.021
		l-0.007-8.624H59.309z"/>
</g>
<g>
	<path fill="#6C7988" d="M21.948,16.041v4.147c0,0.442-0.365,0.801-0.814,0.801h-9.048c-0.449,0-0.814-0.358-0.814-0.801v-4.147
		c0-0.441,0.365-0.801,0.814-0.801h9.048C21.583,15.24,21.948,15.599,21.948,16.041z M12.085,16.062l0.007,4.126l9.042-0.02
		l-0.007-4.106H12.085z"/>
</g>
<g>
	<path fill="#6C7988" d="M34.267,16.041v4.147c0,0.442-0.365,0.801-0.814,0.801h-9.458c-0.449,0-0.814-0.358-0.814-0.801v-4.147
		c0-0.441,0.365-0.801,0.814-0.801h9.458C33.902,15.24,34.267,15.599,34.267,16.041z M23.994,16.062l0.007,4.126l9.452-0.02
		l-0.007-4.106H23.994z"/>
</g>
<g>
	<path fill="#6C7988" d="M46.586,16.041v4.147c0,0.442-0.365,0.801-0.814,0.801h-9.458c-0.449,0-0.814-0.358-0.814-0.801v-4.147
		c0-0.441,0.365-0.801,0.814-0.801h9.458C46.221,15.24,46.586,15.599,46.586,16.041z M36.313,16.062l0.007,4.126l9.452-0.02
		l-0.007-4.106H36.313z"/>
</g>
<g>
	<path fill="#6C7988" d="M58.905,16.041v4.147c0,0.442-0.365,0.801-0.814,0.801h-9.458c-0.449,0-0.814-0.358-0.814-0.801v-4.147
		c0-0.441,0.366-0.801,0.814-0.801h9.458C58.54,15.24,58.905,15.599,58.905,16.041z M48.632,16.062l0.007,4.126l9.451-0.02
		l-0.007-4.106H48.632z"/>
</g>
<g>
	<path fill="#6C7988" d="M71.224,16.041v4.147c0,0.442-0.365,0.801-0.814,0.801h-9.459c-0.449,0-0.814-0.358-0.814-0.801v-4.147
		c0-0.441,0.365-0.801,0.814-0.801h9.459C70.859,15.24,71.224,15.599,71.224,16.041z M60.951,16.062l0.007,4.126l9.452-0.02
		l-0.007-4.106H60.951z"/>
</g>
<g>
	<path fill="#6C7988" d="M83.543,16.041v4.147c0,0.442-0.365,0.801-0.814,0.801h-9.459c-0.449,0-0.814-0.358-0.814-0.801v-4.147
		c0-0.441,0.366-0.801,0.814-0.801h9.459C83.178,15.24,83.543,15.599,83.543,16.041z M73.271,16.062l0.007,4.126l9.452-0.02
		l-0.007-4.106H73.271z"/>
</g>
<g>
	<path fill="#6C7988" d="M95.862,16.041v4.147c0,0.442-0.365,0.801-0.814,0.801h-9.459c-0.448,0-0.813-0.358-0.813-0.801v-4.147
		c0-0.441,0.365-0.801,0.813-0.801h9.459C95.498,15.24,95.862,15.599,95.862,16.041z M85.589,16.062l0.008,4.126l9.451-0.02
		l-0.007-4.106H85.589z"/>
</g>
<g>
	<path fill="#6C7988" d="M108.182,16.041v4.147c0,0.442-0.365,0.801-0.813,0.801h-9.459c-0.448,0-0.813-0.358-0.813-0.801v-4.147
		c0-0.441,0.365-0.801,0.813-0.801h9.459C107.816,15.24,108.182,15.599,108.182,16.041z M97.909,16.062l0.007,4.126l9.452-0.02
		l-0.007-4.106H97.909z"/>
</g>
<g>
	<path fill="#6C7988" d="M120.501,16.041v4.147c0,0.442-0.366,0.801-0.814,0.801h-9.459c-0.448,0-0.813-0.358-0.813-0.801v-4.147
		c0-0.441,0.365-0.801,0.813-0.801h9.459C120.135,15.24,120.501,15.599,120.501,16.041z M110.228,16.062l0.008,4.126l9.451-0.02
		l-0.007-4.106H110.228z"/>
</g>
<g>
	<path fill="#6C7988" d="M132.82,16.041v4.147c0,0.442-0.365,0.801-0.814,0.801h-9.459c-0.448,0-0.813-0.358-0.813-0.801v-4.147
		c0-0.441,0.365-0.801,0.813-0.801h9.459C132.455,15.24,132.82,15.599,132.82,16.041z M122.547,16.062l0.008,4.126l9.451-0.02
		l-0.007-4.106H122.547z"/>
</g>
<g>
	<path fill="#6C7988" d="M145.139,16.041v4.147c0,0.442-0.365,0.801-0.813,0.801h-9.46c-0.447,0-0.813-0.358-0.813-0.801v-4.147
		c0-0.441,0.365-0.801,0.813-0.801h9.46C144.773,15.24,145.139,15.599,145.139,16.041z M134.865,16.062l0.009,4.126l9.451-0.02
		l-0.007-4.106H134.865z"/>
</g>
<g>
	<path fill="#6C7988" d="M157.458,16.041v4.147c0,0.442-0.365,0.801-0.813,0.801h-9.459c-0.449,0-0.813-0.358-0.813-0.801v-4.147
		c0-0.441,0.364-0.801,0.813-0.801h9.459C157.093,15.24,157.458,15.599,157.458,16.041z M147.186,16.062l0.008,4.126l9.451-0.02
		l-0.008-4.106H147.186z"/>
</g>
<g>
	<path fill="#6C7988" d="M169.777,16.041v4.147c0,0.442-0.365,0.801-0.814,0.801h-9.459c-0.448,0-0.813-0.358-0.813-0.801v-4.147
		c0-0.441,0.364-0.801,0.813-0.801h9.459C169.412,15.24,169.777,15.599,169.777,16.041z M159.504,16.062l0.008,4.126l9.451-0.02
		l-0.007-4.106H159.504z"/>
</g>
<g>
	<path fill="#6C7988" d="M183.328,16.041v4.147c0,0.442-0.365,0.801-0.814,0.801h-10.69c-0.448,0-0.813-0.358-0.813-0.801v-4.147
		c0-0.441,0.365-0.801,0.813-0.801h10.69C182.963,15.24,183.328,15.599,183.328,16.041z M171.823,16.062l0.009,4.126l10.682-0.02
		l-0.007-4.106H171.823z"/>
</g>
<g>
	<path fill="#6C7988" d="M183.328,56.282v8.667c0,0.44-0.365,0.799-0.814,0.799h-24.241c-0.448,0-0.813-0.358-0.813-0.799v-8.667
		c0-0.44,0.365-0.801,0.813-0.801h24.241C182.963,55.481,183.328,55.842,183.328,56.282z M158.272,56.304l0.008,8.646l24.233-0.022
		l-0.007-8.623H158.272z"/>
</g>
<g>
	<path fill="#6C7988" d="M60.958,56.282v8.667c0,0.44-0.359,0.799-0.801,0.799h-9.897c-0.441,0-0.801-0.358-0.801-0.799v-8.667
		c0-0.44,0.359-0.801,0.801-0.801h9.897C60.599,55.481,60.958,55.842,60.958,56.282z M50.261,56.304l0.021,8.646l9.876-0.022
		l-0.021-8.623H50.261z"/>
</g>
<g>
	<path fill="#6C7988" d="M44.943,67.781v8.664c0,0.442-0.359,0.801-0.8,0.801h-9.076c-0.441,0-0.8-0.358-0.8-0.801v-8.664
		c0-0.441,0.359-0.801,0.8-0.801h9.076C44.584,66.98,44.943,67.34,44.943,67.781z M35.067,67.802l0.021,8.644l9.055-0.021
		l-0.021-8.623H35.067z"/>
</g>
<g>
	<path fill="#6C7988" d="M58.905,67.781v8.664c0,0.442-0.359,0.801-0.8,0.801H46.976c-0.441,0-0.801-0.358-0.801-0.801v-8.664
		c0-0.441,0.36-0.801,0.801-0.801h11.129C58.546,66.98,58.905,67.34,58.905,67.781z M46.976,67.802l0.021,8.644l11.108-0.021
		l-0.021-8.623H46.976z"/>
</g>
<g>
	<path fill="#6C7988" d="M146.371,67.781v8.664c0,0.442-0.359,0.801-0.801,0.801h-9.075c-0.442,0-0.801-0.358-0.801-0.801v-8.664
		c0-0.441,0.358-0.801,0.801-0.801h9.075C146.012,66.98,146.371,67.34,146.371,67.781z M136.495,67.802l0.021,8.644l9.055-0.021
		l-0.021-8.623H136.495z"/>
</g>
<g>
	<path fill="#6C7988" d="M171.42,67.781v8.664c0,0.442-0.358,0.801-0.801,0.801h-9.075c-0.442,0-0.8-0.358-0.8-0.801v-8.664
		c0-0.441,0.357-0.801,0.8-0.801h9.075C171.062,66.98,171.42,67.34,171.42,67.781z M161.544,67.802l0.021,8.644l9.055-0.021
		l-0.021-8.623H161.544z"/>
</g>
<g>
	<path fill="#6C7988" d="M159.512,72.709v3.736c0,0.442-0.359,0.801-0.801,0.801h-9.076c-0.441,0-0.8-0.358-0.8-0.801v-3.736
		c0-0.442,0.358-0.801,0.8-0.801h9.076C159.152,71.908,159.512,72.267,159.512,72.709z M149.635,72.729l0.021,3.716l9.055-0.021
		l-0.021-3.695H149.635z"/>
</g>
<g>
	<path fill="#6C7988" d="M183.328,72.709v3.736c0,0.442-0.359,0.801-0.8,0.801h-9.076c-0.441,0-0.8-0.358-0.8-0.801v-3.736
		c0-0.442,0.358-0.801,0.8-0.801h9.076C182.969,71.908,183.328,72.267,183.328,72.709z M173.452,72.729l0.021,3.716l9.056-0.021
		l-0.021-3.695H173.452z"/>
</g>
<g>
	<path fill="#6C7988" d="M134.463,67.781v8.664c0,0.442-0.359,0.801-0.801,0.801h-11.129c-0.442,0-0.8-0.358-0.8-0.801v-8.664
		c0-0.441,0.358-0.801,0.8-0.801h11.129C134.104,66.98,134.463,67.34,134.463,67.781z M122.533,67.802l0.021,8.644l11.108-0.021
		l-0.021-8.623H122.533z"/>
</g>
<g opacity="0.2">
	<path fill="#6C7988" d="M5.999,78.419c0,2.071,1.685,3.755,3.755,3.755l176.323-0.063c0.453,0,1.021-0.311,1.424-0.459v0.464
		c-0.319,2.273-2.416,2.754-4.486,2.754H8.057c-2.07,0-4.521-1.794-4.521-3.864V9.549c0-1.616,1.029-2.993,2.464-3.521V78.419z"/>
</g>
</svg>
